<svg width="48" height="48" viewBox="0 0 48 48" fill="none" xmlns="http://www.w3.org/2000/svg">
<rect width="48" height="48" rx="24" fill="#19B820"/>
<path d="M15.5957 14C15.0434 14 14.5957 14.4477 14.5957 15C14.5957 15.5523 15.0434 16 15.5957 16C16.3241 16 16.9605 16.5293 17.0915 17.274L17.7775 21.1733C17.7834 21.2069 17.791 21.2399 17.8 21.2721L18.0025 22.4035C18.5681 25.5646 18.8509 27.1451 19.829 28.2301C20.1919 28.6327 20.6176 28.9784 21.0907 29.2549C22.3656 30 24.0286 30 27.3545 30H27.7604C29.2631 30 30.0144 30 30.6328 29.7364C31.1356 29.522 31.5727 29.1864 31.9021 28.7619C32.3071 28.2398 32.4756 27.5336 32.8126 26.1212C33.3215 23.9881 33.576 22.9215 33.2797 22.0874C33.0406 21.4142 32.5677 20.8412 31.9411 20.4655C31.1647 20 30.0299 20 27.7604 20H19.6018L19.0613 16.9275C18.7646 15.2414 17.31 14 15.5957 14Z" fill="white"/>
<path d="M22.4058 32.75C22.4058 33.4404 21.8461 34 21.1558 34C20.4654 34 19.9058 33.4404 19.9058 32.75C19.9058 32.0596 20.4654 31.5 21.1558 31.5C21.8461 31.5 22.4058 32.0596 22.4058 32.75Z" fill="white"/>
<path d="M30.1558 34C30.8461 34 31.4058 33.4404 31.4058 32.75C31.4058 32.0596 30.8461 31.5 30.1558 31.5C29.4654 31.5 28.9058 32.0596 28.9058 32.75C28.9058 33.4404 29.4654 34 30.1558 34Z" fill="white"/>
</svg>
