<svg width="20" height="20" viewBox="0 0 20 20" fill="none" xmlns="http://www.w3.org/2000/svg">
<path d="M14.166 8.33464H15.8327C17.4993 8.33464 18.3327 7.5013 18.3327 5.83464V4.16797C18.3327 2.5013 17.4993 1.66797 15.8327 1.66797H14.166C12.4993 1.66797 11.666 2.5013 11.666 4.16797V5.83464C11.666 7.5013 12.4993 8.33464 14.166 8.33464Z" stroke="#565C69" stroke-width="1.5" stroke-miterlimit="10" stroke-linecap="round" stroke-linejoin="round"/>
<path d="M4.16602 18.3346H5.83268C7.49935 18.3346 8.33268 17.5013 8.33268 15.8346V14.168C8.33268 12.5013 7.49935 11.668 5.83268 11.668H4.16602C2.49935 11.668 1.66602 12.5013 1.66602 14.168V15.8346C1.66602 17.5013 2.49935 18.3346 4.16602 18.3346Z" stroke="#565C69" stroke-width="1.5" stroke-miterlimit="10" stroke-linecap="round" stroke-linejoin="round"/>
<path d="M4.99935 8.33464C6.8403 8.33464 8.33268 6.84225 8.33268 5.0013C8.33268 3.16035 6.8403 1.66797 4.99935 1.66797C3.1584 1.66797 1.66602 3.16035 1.66602 5.0013C1.66602 6.84225 3.1584 8.33464 4.99935 8.33464Z" stroke="#565C69" stroke-width="1.5" stroke-miterlimit="10" stroke-linecap="round" stroke-linejoin="round"/>
<path d="M14.9993 18.3346C16.8403 18.3346 18.3327 16.8423 18.3327 15.0013C18.3327 13.1604 16.8403 11.668 14.9993 11.668C13.1584 11.668 11.666 13.1604 11.666 15.0013C11.666 16.8423 13.1584 18.3346 14.9993 18.3346Z" stroke="#565C69" stroke-width="1.5" stroke-miterlimit="10" stroke-linecap="round" stroke-linejoin="round"/>
</svg>
