<svg width="20" height="20" viewBox="0 0 20 20" fill="none" xmlns="http://www.w3.org/2000/svg">
<path d="M13.4659 8.33398C13.4659 8.33398 13.3409 9.16732 10.7575 12.5007C8.33252 15.6423 11.8409 18.034 12.2576 18.309C12.2826 18.3257 12.3075 18.3257 12.3409 18.309C12.9075 17.959 19.2159 13.9007 13.4659 8.33398Z" fill="white"/>
<path d="M11.4665 6.49269C11.4665 4.57603 10.7165 2.82603 9.96649 1.82603C9.71649 1.57603 9.2998 1.65936 9.21647 1.99269C8.88314 3.24269 7.88314 5.90936 5.46647 9.07603C2.38314 13.076 5.21648 17.4094 8.13315 18.2427C9.71648 18.6594 7.71649 17.4094 7.46649 14.826C7.21649 11.576 11.4665 9.15936 11.4665 6.49269Z" fill="white"/>
</svg>
