<svg width="343" height="212" viewBox="0 0 343 212" fill="none" xmlns="http://www.w3.org/2000/svg">
<g clip-path="url(#clip0_6534_24278)">
<rect width="343" height="212" rx="16" fill="#E7F5FF"/>
<path d="M157.314 72.9613C157.931 71.9319 158.933 71.1899 160.097 70.8988L203.3 60.0979C205.725 59.4915 208.183 60.9661 208.789 63.3915L219.59 106.594C219.881 107.759 219.698 108.992 219.08 110.021L188.279 161.356C185.356 166.23 179.035 167.81 174.161 164.886L130.042 138.415C125.169 135.491 123.588 129.17 126.513 124.297L157.314 72.9613Z" fill="#73C3FE"/>
<path d="M191.846 85.4108L191.91 85.3047L191.846 85.4108Z" fill="#73C3FE"/>
<circle cx="198.806" cy="73.0349" r="5.09248" transform="rotate(75.9635 198.806 73.0349)" fill="#074F85"/>
<path d="M161.211 90.8079C161.787 89.2461 163.681 88.6451 165.052 89.5883L169.234 92.4637C170.176 93.1114 171.434 93.0539 172.313 92.3232L176.215 89.0788C177.495 88.0145 179.435 88.4406 180.152 89.9434L182.335 94.5244C182.827 95.5563 183.945 96.1354 185.072 95.942L190.074 95.0835C191.714 94.8019 193.181 96.1409 193.05 97.8005L192.651 102.86C192.561 103.999 193.24 105.06 194.312 105.456L199.073 107.213C200.635 107.789 201.236 109.683 200.293 111.054L197.417 115.236C196.769 116.178 196.827 117.436 197.558 118.315L200.802 122.217C201.866 123.497 201.44 125.437 199.937 126.154L195.356 128.337C194.325 128.829 193.745 129.947 193.939 131.074L194.797 136.076C195.079 137.716 193.74 139.183 192.08 139.052L187.021 138.653C185.882 138.563 184.821 139.242 184.425 140.314L182.668 145.075C182.091 146.637 180.198 147.238 178.826 146.295L174.645 143.419C173.703 142.772 172.445 142.829 171.566 143.56L167.664 146.804C166.384 147.868 164.444 147.442 163.727 145.939L161.543 141.358C161.052 140.327 159.934 139.748 158.807 139.941L153.805 140.799C152.164 141.081 150.697 139.742 150.828 138.082L151.228 133.023C151.318 131.884 150.639 130.823 149.567 130.427L144.806 128.67C143.244 128.093 142.643 126.2 143.586 124.828L146.462 120.647C147.109 119.705 147.052 118.447 146.321 117.568L143.077 113.666C142.013 112.386 142.439 110.446 143.941 109.729L148.522 107.545C149.554 107.054 150.133 105.936 149.94 104.809L149.082 99.8073C148.8 98.1665 150.139 96.6995 151.799 96.8304L156.858 97.2297C157.997 97.3196 159.058 96.6411 159.454 95.5688L161.211 90.8079Z" fill="#074F85"/>
<path d="M167.916 135.687L164.821 125.937L162.531 126.664L161.604 123.743L163.894 123.016L162.991 120.174L160.702 120.9L159.774 117.979L162.064 117.253L158.969 107.503L165.166 105.535L171.34 114.308L174.932 113.167L171.837 103.417L176.219 102.026L179.314 111.776L181.564 111.062L182.491 113.983L180.241 114.697L181.144 117.539L183.394 116.825L184.321 119.746L182.071 120.46L185.166 130.21L178.929 132.19L172.676 123.443L169.202 124.546L172.298 134.296L167.916 135.687ZM168.275 121.625L170.88 120.798L169.11 118.231L167.294 118.808L168.275 121.625ZM178.948 125.406L179.145 125.343L177.847 121.801L176.781 122.14L178.948 125.406ZM166.288 115.912L167.393 115.561L165.045 112.135L164.887 112.185L166.288 115.912ZM175.025 119.482L176.841 118.905L175.86 116.088L173.215 116.928L175.025 119.482Z" fill="#E7F5FF"/>
<path d="M199.105 71.1447C203.644 65.7477 212.426 51.9364 211.249 39.8672" stroke="#074F85" stroke-width="1.47188"/>
<path d="M100.437 177.707C93.5288 173.688 87.6153 162.895 85.522 158C81.4402 159.855 74.1399 166.244 71 169.206C71.314 175.08 80.8122 184.534 85.522 188.527L100.437 177.707Z" fill="#074F85"/>
<path d="M98.4974 51.5975C97.9309 47.7709 100.185 42.3765 101.384 40.1576C99.4731 39.1149 94.9118 38.1349 92.87 37.7753C90.7756 39.5887 90.091 45.9822 90.0105 48.9523L98.4974 51.5975Z" fill="#0D97FD"/>
<path d="M294.717 183.26C290.055 178.924 287.333 169.423 286.554 165.215C283.071 165.982 276.311 169.772 273.367 171.572C272.598 176.249 278.33 185.304 281.292 189.246L294.717 183.26Z" fill="#0D97FD"/>
<path d="M283.88 38.8376C288.205 38.9717 293.847 42.616 296.128 44.4214C297.567 42.4706 299.331 37.5076 300.033 35.27C298.335 32.5325 291.352 30.4625 288.072 29.7697L283.88 38.8376Z" fill="#73C3FE"/>
<path d="M298.621 118.795C321.03 119.338 350.151 137.876 361.91 147.078C369.437 137.003 378.746 111.435 382.46 99.9103C373.751 85.8984 337.63 75.4967 320.658 72.0473L298.621 118.795Z" fill="#73C3FE"/>
<path d="M-16.264 89.2108C4.04842 98.6906 23.296 127.348 30.3808 140.491C41.3144 134.278 60.0922 114.586 68.1144 105.517C65.7525 89.1889 36.8299 65.1799 22.6638 55.2165L-16.264 89.2108Z" fill="#BDE3FF"/>
</g>
<defs>
<clipPath id="clip0_6534_24278">
<rect width="343" height="212" rx="16" fill="white"/>
</clipPath>
</defs>
</svg>
