<svg width="464" height="205" viewBox="0 0 464 205" fill="none" xmlns="http://www.w3.org/2000/svg">
<g clip-path="url(#clip0_6525_25359)">
<rect width="464" height="205" rx="16" fill="#E7F5FF"/>
<path d="M212.214 52.9707C213.054 51.5719 214.414 50.5637 215.997 50.1681L274.701 35.4918C277.996 34.6679 281.336 36.6716 282.16 39.9672L296.836 98.6711C297.232 100.254 296.982 101.929 296.143 103.328L254.291 173.082C250.318 179.704 241.729 181.851 235.107 177.878L175.158 141.909C168.536 137.936 166.389 129.347 170.362 122.726L212.214 52.9707Z" fill="#73C3FE"/>
<path d="M259.138 69.8864L259.225 69.7422L259.138 69.8864Z" fill="#73C3FE"/>
<circle cx="268.594" cy="53.0632" r="6.91968" transform="rotate(75.9635 268.594 53.0632)" fill="#074F85"/>
<path d="M217.511 77.2134C218.294 75.0912 220.866 74.2745 222.731 75.5562L228.413 79.4633C229.693 80.3433 231.401 80.2653 232.596 79.2724L237.898 74.864C239.638 73.4178 242.274 73.9967 243.247 76.0387L246.215 82.2634C246.883 83.6655 248.402 84.4524 249.933 84.1896L256.729 83.0231C258.959 82.6405 260.952 84.4599 260.774 86.715L260.232 93.5895C260.11 95.1379 261.032 96.5788 262.489 97.1167L268.958 99.5047C271.08 100.288 271.897 102.86 270.615 104.724L266.708 110.407C265.828 111.686 265.906 113.395 266.899 114.59L271.307 119.892C272.753 121.632 272.175 124.268 270.132 125.241L263.908 128.209C262.506 128.877 261.719 130.396 261.982 131.927L263.148 138.723C263.531 140.953 261.711 142.946 259.456 142.768L252.582 142.226C251.033 142.104 249.592 143.025 249.055 144.483L246.667 150.952C245.883 153.074 243.311 153.891 241.447 152.609L235.765 148.702C234.485 147.822 232.776 147.9 231.582 148.893L226.279 153.301C224.539 154.747 221.903 154.168 220.93 152.126L217.963 145.902C217.294 144.5 215.775 143.713 214.244 143.975L207.448 145.142C205.218 145.525 203.225 143.705 203.403 141.45L203.946 134.576C204.068 133.027 203.146 131.586 201.689 131.048L195.219 128.66C193.097 127.877 192.281 125.305 193.562 123.441L197.469 117.759C198.349 116.479 198.271 114.77 197.279 113.575L192.87 108.273C191.424 106.533 192.003 103.897 194.045 102.924L200.27 99.9564C201.672 99.288 202.458 97.7691 202.196 96.2383L201.029 89.4418C200.647 87.2123 202.466 85.2189 204.721 85.3969L211.596 85.9394C213.144 86.0616 214.585 85.1396 215.123 83.6825L217.511 77.2134Z" fill="#074F85"/>
<path d="M226.49 137.787L222.285 124.539L219.174 125.526L217.913 121.557L221.024 120.57L219.798 116.708L216.687 117.695L215.427 113.726L218.538 112.739L214.332 99.4904L222.753 96.817L231.143 108.737L236.024 107.188L231.818 93.9392L237.772 92.0491L241.978 105.297L245.035 104.327L246.295 108.296L243.238 109.267L244.464 113.128L247.521 112.158L248.781 116.127L245.724 117.097L249.93 130.346L241.455 133.036L232.958 121.15L228.238 122.649L232.444 135.897L226.49 137.787ZM226.978 118.68L230.518 117.556L228.112 114.068L225.645 114.852L226.978 118.68ZM241.481 123.817L241.749 123.732L239.985 118.92L238.536 119.379L241.481 123.817ZM224.277 110.917L225.779 110.44L222.589 105.785L222.375 105.853L224.277 110.917ZM236.15 115.768L238.617 114.984L237.284 111.157L233.69 112.298L236.15 115.768Z" fill="#E7F5FF"/>
<path d="M269.002 50.5C275.169 43.1665 287.102 24.3997 285.502 8" stroke="#074F85" stroke-width="2"/>
<path d="M93.76 158.932C86.0723 154.46 79.4912 142.447 77.1616 137C72.6189 139.064 64.4944 146.174 61 149.471C61.3494 156.008 71.92 166.53 77.1616 170.973L93.76 158.932Z" fill="#074F85"/>
<path d="M121.273 53.9757C120.642 49.717 123.151 43.7136 124.485 41.2442C122.359 40.0838 117.282 38.9932 115.01 38.5929C112.679 40.6111 111.917 47.7264 111.828 51.0318L121.273 53.9757Z" fill="#0D97FD"/>
<path d="M373.284 169.576C368.097 164.75 365.067 154.176 364.2 149.493C360.323 150.347 352.801 154.565 349.524 156.568C348.668 161.773 355.047 171.85 358.344 176.238L373.284 169.576Z" fill="#0D97FD"/>
<path d="M364.177 53.2894C368.99 53.4387 375.27 57.4944 377.808 59.5036C379.41 57.3326 381.373 51.8093 382.154 49.319C380.264 46.2724 372.493 43.9688 368.843 43.1977L364.177 53.2894Z" fill="#73C3FE"/>
<path d="M401.272 113.865C426.211 114.468 458.62 135.1 471.707 145.34C480.083 134.128 490.443 105.673 494.576 92.8476C484.884 77.2537 444.685 65.6776 425.796 61.8388L401.272 113.865Z" fill="#73C3FE"/>
<path d="M-45.2138 80.9372C-22.6081 91.4873 -1.1874 123.38 6.69723 138.007C18.8652 131.093 39.7632 109.178 48.6911 99.0842C46.0625 80.9128 13.8745 54.1932 -1.89101 43.1048L-45.2138 80.9372Z" fill="#BDE3FF"/>
</g>
<defs>
<clipPath id="clip0_6525_25359">
<rect width="464" height="205" rx="16" fill="white"/>
</clipPath>
</defs>
</svg>
