<svg width="32" height="32" viewBox="0 0 32 32" fill="none" xmlns="http://www.w3.org/2000/svg">
<path d="M32 16C32 24.8366 24.8366 32 16 32C7.16344 32 0 24.8366 0 16C0 7.16344 7.16344 0 16 0C24.8366 0 32 7.16344 32 16ZM4 16C4 22.6274 9.37258 28 16 28C22.6274 28 28 22.6274 28 16C28 9.37258 22.6274 4 16 4C9.37258 4 4 9.37258 4 16Z" fill="#E8F8E9"/>
<path d="M30 16C31.1046 16 32.0129 16.8989 31.8752 17.9948C31.5233 20.7955 30.4347 23.466 28.7045 25.7261C26.5671 28.518 23.5696 30.528 20.1754 31.4456C16.7811 32.3631 13.1792 32.1371 9.92629 30.8024C6.6734 29.4676 3.95075 27.0986 2.17923 24.0614C0.407697 21.0242 -0.314055 17.4881 0.125543 13.9996C0.565141 10.5111 2.14161 7.26457 4.61124 4.76184C7.08088 2.25911 10.3062 0.63957 13.7885 0.153576C16.6075 -0.239848 19.4679 0.127316 22.0789 1.19974C23.1006 1.61941 23.4359 2.85256 22.8921 3.814C22.3484 4.77545 21.1312 5.09626 20.0928 4.71953C18.263 4.05563 16.289 3.84337 14.3414 4.11518C11.7296 4.47968 9.31066 5.69433 7.45843 7.57138C5.60621 9.44843 4.42386 11.8833 4.09416 14.4997C3.76446 17.1161 4.30577 19.7682 5.63442 22.0461C6.96307 24.3239 9.00505 26.1007 11.4447 27.1018C13.8844 28.1028 16.5859 28.2724 19.1315 27.5842C21.6772 26.896 23.9253 25.3885 25.5283 23.2946C26.7238 21.7331 27.5108 19.9104 27.8337 17.9908C28.017 16.9015 28.8954 16 30 16Z" fill="#19B820"/>
</svg>
