<svg width="464" height="205" viewBox="0 0 464 205" fill="none" xmlns="http://www.w3.org/2000/svg">
<g clip-path="url(#clip0_6553_24079)">
<rect width="464" height="205" rx="16" fill="#E6F8EF"/>
<g filter="url(#filter0_d_6553_24079)">
<rect x="-4.32617" y="29" width="214.252" height="67.9134" rx="33.9567" fill="white" shape-rendering="crispEdges"/>
<g clip-path="url(#clip1_6553_24079)">
<rect x="9.32422" y="42.5859" width="40.7481" height="40.7481" rx="20.374" fill="#A4DE9B" fill-opacity="0.5"/>
<path d="M15.1953 52.9766L43.6577 67.5466L45.9802 68.7359L46.0915 58.8314L15.1953 52.9766Z" fill="#6FD4A5"/>
<path d="M15.1895 52.9766L36.4879 75.7198L45.7971 85.6619L45.9409 72.8788L40.8851 69.6008L15.1955 52.9775L15.1895 52.9766Z" fill="#6FD4A5"/>
<path d="M15.1895 52.9766L33.5395 77.9009L36.4879 75.7198L15.1895 52.9766Z" fill="#046E3C"/>
<path d="M15.1953 52.9766L40.8849 69.5998L43.6577 67.5466L15.1953 52.9766Z" fill="#046E3C"/>
</g>
<path d="M64.964 68.9531V57.4078H69.0728C71.7724 57.4078 73.4362 58.817 73.4362 61.1261C73.4362 63.4861 71.7384 64.8613 69.1067 64.8613H66.8656V68.9531H64.964ZM69.0558 58.9359H66.8656V63.3333H69.0049C70.6008 63.3333 71.4837 62.4844 71.4837 61.1431C71.4837 59.8018 70.5839 58.9359 69.0558 58.9359ZM76.4482 62.8579H74.6315C74.9201 60.8544 76.2954 59.666 78.5535 59.666C81.0153 59.666 82.2378 61.1091 82.2378 63.2144V66.7459C82.2378 67.8326 82.3397 68.4608 82.5434 68.9531H80.6418C80.506 68.6136 80.4551 68.1382 80.4381 67.6288C79.6741 68.6984 78.5025 69.1738 77.4159 69.1738C75.5823 69.1738 74.3259 68.3079 74.3259 66.5762C74.3259 65.3367 75.005 64.4199 76.3633 63.9615C77.5687 63.554 78.7912 63.4521 80.4211 63.4352V63.2314C80.4211 61.9071 79.8099 61.194 78.4177 61.194C77.2461 61.194 76.6179 61.8392 76.4482 62.8579ZM76.1595 66.5082C76.1595 67.2723 76.7877 67.7477 77.7555 67.7477C79.2666 67.7477 80.4211 66.5422 80.4211 65.0821V64.6746C76.9405 64.7085 76.1595 65.4726 76.1595 66.5082ZM84.4878 72.9091C84.0973 72.9091 83.6898 72.8072 83.4861 72.7393V71.3471H83.9785C85.0141 71.3471 85.4046 71.1433 86.1857 69.2587L86.4573 68.6305L82.8239 59.9037H84.7764L87.0176 65.5405L87.4081 66.7799L87.7986 65.5405L89.9718 59.9037H91.8225L87.7137 70.0058C86.7969 72.2639 86.1008 72.9091 84.4878 72.9091ZM103.407 68.9531L101.608 62.5183L101.421 61.4996L101.217 62.5183L99.4174 68.9531H97.1762L94.5616 59.9037H96.5141L98.1779 66.6271L98.3987 67.6458L98.6364 66.6271L100.538 59.9037H102.456L104.375 66.6271L104.579 67.5949L104.783 66.6271L106.446 59.9037H108.314L105.682 68.9531H103.407ZM109.164 58.7831V56.7287H110.981V58.7831H109.164ZM109.164 68.9531V59.9037H110.981V68.9531H109.164ZM112.99 66.2536V61.3129H111.768V59.9037H112.99V57.8153H114.807V59.9037H116.759V61.3129H114.807V66.1517C114.807 67.1874 115.095 67.6797 116.369 67.6797H116.725V69.0041C116.521 69.1059 116.097 69.1738 115.588 69.1738C113.822 69.1738 112.99 68.2061 112.99 66.2536ZM117.7 68.9531V56.7287H119.517V61.1091C120.128 60.1414 121.079 59.666 122.25 59.666C124.135 59.666 125.306 60.7696 125.306 62.9088V68.9531H123.506V63.2824C123.506 61.975 122.929 61.177 121.69 61.177C120.332 61.177 119.517 62.3825 119.517 63.6389V68.9531H117.7ZM132.91 68.9531V59.0038H129.056V57.4078H138.649V59.0038H134.812V68.9531H132.91ZM139.042 68.9531V59.9037H140.859V61.2449C141.453 60.1583 142.387 59.666 143.44 59.666C143.796 59.666 144.136 59.7509 144.305 59.9037V61.4996C144.034 61.4147 143.711 61.3808 143.338 61.3808C141.606 61.3808 140.859 62.4334 140.859 64.0124V68.9531H139.042ZM146.699 62.8579H144.883C145.171 60.8544 146.547 59.666 148.805 59.666C151.267 59.666 152.489 61.1091 152.489 63.2144V66.7459C152.489 67.8326 152.591 68.4608 152.795 68.9531H150.893C150.757 68.6136 150.706 68.1382 150.689 67.6288C149.925 68.6984 148.754 69.1738 147.667 69.1738C145.834 69.1738 144.577 68.3079 144.577 66.5762C144.577 65.3367 145.256 64.4199 146.615 63.9615C147.82 63.554 149.042 63.4521 150.672 63.4352V63.2314C150.672 61.9071 150.061 61.194 148.669 61.194C147.497 61.194 146.869 61.8392 146.699 62.8579ZM146.411 66.5082C146.411 67.2723 147.039 67.7477 148.007 67.7477C149.518 67.7477 150.672 66.5422 150.672 65.0821V64.6746C147.192 64.7085 146.411 65.4726 146.411 66.5082ZM154.343 68.9531V59.9037H156.159V61.1091C156.771 60.1414 157.721 59.666 158.893 59.666C160.777 59.666 161.949 60.7696 161.949 62.9088V68.9531H160.149V63.2824C160.149 61.975 159.572 61.177 158.333 61.177C156.974 61.177 156.159 62.3825 156.159 63.6389V68.9531H154.343ZM165.177 62.2806C165.177 64.5897 170.967 62.6542 170.967 66.3385C170.967 68.0533 169.422 69.1738 167.231 69.1738C165.041 69.1738 163.496 68.1551 163.157 65.9989H164.973C165.16 67.1364 166.009 67.7646 167.282 67.7646C168.505 67.7646 169.15 67.2213 169.15 66.4573C169.15 64.1992 163.445 66.1008 163.445 62.3825C163.445 60.9733 164.549 59.666 166.841 59.666C168.861 59.666 170.355 60.5998 170.644 62.8579H168.827C168.624 61.5845 167.91 61.1091 166.756 61.1091C165.754 61.1091 165.177 61.6015 165.177 62.2806ZM171.178 61.3129V59.9037H172.4V59.4283C172.4 57.4588 173.232 56.508 174.93 56.508C175.388 56.508 175.745 56.5929 175.932 56.6778V57.9002H175.762C174.505 57.9002 174.2 58.4096 174.2 59.4452V59.9037H175.932V61.3129H174.2V68.9531H172.4V61.3129H171.178ZM184.661 65.9989C184.168 68.1042 182.606 69.1738 180.484 69.1738C177.819 69.1738 176.189 67.3911 176.189 64.4369C176.189 61.3638 177.819 59.666 180.399 59.666C183.014 59.666 184.593 61.4317 184.593 64.335V64.7764H178.039C178.141 66.6271 179.007 67.6628 180.484 67.6628C181.639 67.6628 182.454 67.1195 182.759 65.9989H184.661ZM180.399 61.177C179.092 61.177 178.311 62.009 178.09 63.537H182.708C182.488 62.009 181.69 61.177 180.399 61.177ZM185.988 68.9531V59.9037H187.805V61.2449C188.399 60.1583 189.333 59.666 190.385 59.666C190.742 59.666 191.082 59.7509 191.251 59.9037V61.4996C190.98 61.4147 190.657 61.3808 190.284 61.3808C188.552 61.3808 187.805 62.4334 187.805 64.0124V68.9531H185.988Z" fill="#046E3C"/>
<rect x="-3.57617" y="29.75" width="212.752" height="66.4134" rx="33.2067" stroke="#6FD4A5" stroke-width="1.5" shape-rendering="crispEdges"/>
</g>
<g filter="url(#filter1_d_6553_24079)">
<rect x="222.35" y="29" width="195.252" height="67.9134" rx="33.9567" fill="white" shape-rendering="crispEdges"/>
<g clip-path="url(#clip2_6553_24079)">
<rect x="236" y="42.5859" width="40.7481" height="40.7481" rx="20.374" fill="#A4DE9B" fill-opacity="0.5"/>
<path d="M263.44 69V71.8757L260.883 73.2137V70.4134L263.44 69Z" fill="#07B463"/>
<path d="M270.865 64.6719V67.5476L268.309 68.8856V66.0853L270.865 64.6719Z" fill="#07B463"/>
<path d="M255.98 64.6523L253.489 66.089L250.998 64.6523L248.507 63.2133L246.016 61.7766L243.525 60.3375L246.016 58.8984L248.507 60.3375L250.998 61.7766L253.489 63.2133L255.98 64.6523Z" fill="#6FD4A5"/>
<path d="M246.016 61.775L243.525 63.2117V60.3359L246.016 61.775Z" fill="#057E45"/>
<path d="M253.49 66.0851L250.999 67.5242L248.508 66.0875L250.999 64.6484L253.49 66.0851Z" fill="#057E45"/>
<path d="M263.454 60.3253L260.963 61.7644L258.472 60.3253L255.981 58.8862L253.49 57.4471L248.496 54.5641L250.987 53.125L255.981 56.0105L258.472 57.4471H258.475L260.963 58.8862L263.454 60.3253Z" fill="#6FD4A5"/>
<path d="M253.49 57.4533L250.999 58.8924L248.496 57.446V54.5703L253.49 57.4533Z" fill="#057E45"/>
<path d="M258.473 60.3375L255.982 61.7742L253.491 63.2133L251 61.7766L253.493 60.3375L255.982 58.8984L258.473 60.3375Z" fill="#046E3C"/>
<path d="M260.964 61.775L258.473 63.2117L255.982 61.7726L258.473 60.3359L260.964 61.775Z" fill="#057E45"/>
<path d="M255.981 58.8844L253.492 60.3235L250.999 61.7626L248.508 60.3235L250.999 58.8844L253.49 57.4453L255.981 58.8844Z" fill="#31C17E"/>
<path d="M248.508 63.2023L246.017 64.6414L243.526 66.0804L241.035 64.6414L243.526 63.2023L246.017 61.7656L248.508 63.2023Z" fill="#31C17E"/>
<path d="M260.964 56.0094L258.476 57.446H258.473L255.982 56.0094L258.473 54.5703L260.964 56.0094Z" fill="#31C17E"/>
<path d="M250.998 64.6266L248.507 66.0657L243.525 68.9414V66.0657L246.016 64.6266L248.507 63.1875L250.998 64.6266Z" fill="#046E3C"/>
<path d="M260.963 56.0078V58.8835L258.475 57.4445L260.963 56.0078Z" fill="#046E3C"/>
<path d="M243.526 66.0875V68.9633L241.035 67.5242V64.6484L243.526 66.0875Z" fill="#6FD4A5"/>
<path d="M270.928 58.882L265.946 61.7577L263.455 63.1968L260.964 64.6359L258.473 66.0749L255.982 67.5116L253.491 68.9507L251 67.5116L253.491 66.0725L255.982 64.6359L258.473 63.1968L260.964 61.7601L263.455 60.321L268.437 57.4453L270.928 58.882Z" fill="#6FD4A5"/>
<path d="M270.926 64.636L268.435 66.0751L265.942 64.636L263.453 63.1969L265.944 61.7578L268.435 63.1969L270.926 64.636Z" fill="#31C17E"/>
<path d="M268.432 66.0657V68.9414L263.45 66.0632L260.959 64.6266L263.45 63.1875L265.939 64.6266L268.432 66.0657Z" fill="#057E45"/>
<path d="M263.455 66.0851L260.964 67.5242L258.473 66.0875L260.964 64.6484L263.455 66.0851Z" fill="#046E3C"/>
<path d="M263.455 68.9695L260.964 70.4061L258.473 68.967L255.982 67.5304L258.473 66.0938L260.964 67.5304L263.455 68.9695Z" fill="#31C17E"/>
<path d="M260.965 70.3914V73.2695L255.983 70.3914L253.492 68.9547L255.983 67.5156L258.474 68.9523L260.965 70.3914Z" fill="#057E45"/>
<path d="M255.983 70.3898L253.492 71.8289V68.9531L255.983 70.3898Z" fill="#046E3C"/>
<path d="M253.491 68.9547V71.8304L251 70.3938V67.5156L253.491 68.9547Z" fill="#31C17E"/>
</g>
<path d="M291.64 68.9531V57.4078H295.749C298.448 57.4078 300.112 58.817 300.112 61.1261C300.112 63.4861 298.414 64.8613 295.783 64.8613H293.541V68.9531H291.64ZM295.732 58.9359H293.541V63.3333H295.681C297.277 63.3333 298.16 62.4844 298.16 61.1431C298.16 59.8018 297.26 58.9359 295.732 58.9359ZM303.124 62.8579H301.307C301.596 60.8544 302.971 59.666 305.229 59.666C307.691 59.666 308.914 61.1091 308.914 63.2144V66.7459C308.914 67.8326 309.015 68.4608 309.219 68.9531H307.318C307.182 68.6136 307.131 68.1382 307.114 67.6288C306.35 68.6984 305.178 69.1738 304.092 69.1738C302.258 69.1738 301.002 68.3079 301.002 66.5762C301.002 65.3367 301.681 64.4199 303.039 63.9615C304.245 63.554 305.467 63.4521 307.097 63.4352V63.2314C307.097 61.9071 306.486 61.194 305.093 61.194C303.922 61.194 303.294 61.8392 303.124 62.8579ZM302.835 66.5082C302.835 67.2723 303.464 67.7477 304.431 67.7477C305.942 67.7477 307.097 66.5422 307.097 65.0821V64.6746C303.616 64.7085 302.835 65.4726 302.835 66.5082ZM311.164 72.9091C310.773 72.9091 310.366 72.8072 310.162 72.7393V71.3471H310.654C311.69 71.3471 312.08 71.1433 312.861 69.2587L313.133 68.6305L309.5 59.9037H311.452L313.693 65.5405L314.084 66.7799L314.474 65.5405L316.648 59.9037H318.498L314.389 70.0058C313.473 72.2639 312.777 72.9091 311.164 72.9091ZM330.083 68.9531L328.283 62.5183L328.097 61.4996L327.893 62.5183L326.093 68.9531H323.852L321.237 59.9037H323.19L324.854 66.6271L325.074 67.6458L325.312 66.6271L327.214 59.9037H329.132L331.051 66.6271L331.255 67.5949L331.458 66.6271L333.122 59.9037H334.99L332.358 68.9531H330.083ZM335.84 58.7831V56.7287H337.657V58.7831H335.84ZM335.84 68.9531V59.9037H337.657V68.9531H335.84ZM339.666 66.2536V61.3129H338.443V59.9037H339.666V57.8153H341.482V59.9037H343.435V61.3129H341.482V66.1517C341.482 67.1874 341.771 67.6797 343.044 67.6797H343.401V69.0041C343.197 69.1059 342.773 69.1738 342.263 69.1738C340.498 69.1738 339.666 68.2061 339.666 66.2536ZM344.376 68.9531V56.7287H346.192V61.1091C346.804 60.1414 347.754 59.666 348.926 59.666C350.81 59.666 351.982 60.7696 351.982 62.9088V68.9531H350.182V63.2824C350.182 61.975 349.605 61.177 348.366 61.177C347.007 61.177 346.192 62.3825 346.192 63.6389V68.9531H344.376ZM366.098 64.5557C366.098 67.4251 364.298 69.1738 361.395 69.1738C358.492 69.1738 356.692 67.4251 356.692 64.5557V57.4078H358.594V64.5557C358.594 66.4913 359.646 67.6458 361.395 67.6458C363.161 67.6458 364.196 66.4743 364.196 64.5557V57.4078H366.098V64.5557ZM369.554 60.2602C369.554 63.2993 376.549 60.9054 376.549 65.6254C376.549 67.9005 374.699 69.1738 372.169 69.1738C369.605 69.1738 367.839 68.0023 367.364 65.5914H369.351C369.673 66.8987 370.641 67.6118 372.186 67.6118C373.765 67.6118 374.597 66.9157 374.597 65.88C374.597 62.6202 367.602 65.0481 367.602 60.413C367.602 58.6812 369.062 57.1871 371.694 57.1871C373.969 57.1871 375.836 58.2737 376.244 60.8035H374.223C373.901 59.3773 373.001 58.7491 371.643 58.7491C370.318 58.7491 369.554 59.3434 369.554 60.2602ZM379.509 60.2602C379.509 63.2993 386.504 60.9054 386.504 65.6254C386.504 67.9005 384.654 69.1738 382.124 69.1738C379.56 69.1738 377.794 68.0023 377.319 65.5914H379.305C379.628 66.8987 380.596 67.6118 382.141 67.6118C383.72 67.6118 384.552 66.9157 384.552 65.88C384.552 62.6202 377.557 65.0481 377.557 60.413C377.557 58.6812 379.017 57.1871 381.648 57.1871C383.924 57.1871 385.791 58.2737 386.199 60.8035H384.178C383.856 59.3773 382.956 58.7491 381.598 58.7491C380.273 58.7491 379.509 59.3434 379.509 60.2602ZM387.919 68.9531V57.4078H391.875C395.491 57.4078 397.733 59.5811 397.733 63.1975C397.733 66.8139 395.491 68.9531 391.875 68.9531H387.919ZM391.875 67.4081C394.337 67.4081 395.797 65.8461 395.797 63.1975C395.797 60.5149 394.337 58.9529 391.875 58.9529H389.821V67.4081H391.875Z" fill="#046E3C"/>
<rect x="223.1" y="29.75" width="193.752" height="66.4134" rx="33.2067" stroke="#6FD4A5" stroke-width="1.5" shape-rendering="crispEdges"/>
</g>
<g filter="url(#filter2_d_6553_24079)">
<rect x="430.023" y="29" width="198.252" height="67.9134" rx="33.9567" fill="white" shape-rendering="crispEdges"/>
<rect x="443.674" y="42.5859" width="40.7481" height="40.7481" rx="20.374" fill="#A4DE9B" fill-opacity="0.5"/>
<path d="M475.405 58.1556L464.831 64.2601L448.973 55.1045L459.546 49L475.405 58.1556Z" fill="#07B463"/>
<path d="M464.831 64.2728V73.4306L460.946 71.1874L457.285 69.0732L454.723 67.5932L451.334 65.637L448.973 64.2728V55.1172L464.831 64.2728Z" fill="#057E45"/>
<rect x="430.773" y="29.75" width="196.752" height="66.4134" rx="33.2067" stroke="#6FD4A5" stroke-width="1.5" shape-rendering="crispEdges"/>
</g>
<g filter="url(#filter3_d_6553_24079)">
<rect x="-81.1777" y="109.914" width="186.252" height="67.9134" rx="33.9567" fill="white" shape-rendering="crispEdges"/>
<path d="M-11.8875 149.867V138.322H-7.77877C-5.07921 138.322 -3.41533 139.731 -3.41533 142.04C-3.41533 144.4 -5.11317 145.775 -7.74481 145.775H-9.98596V149.867H-11.8875ZM-7.79575 139.85H-9.98596V144.247H-7.84668C-6.25072 144.247 -5.36784 143.398 -5.36784 142.057C-5.36784 140.716 -6.2677 139.85 -7.79575 139.85ZM-0.403398 143.772H-2.22008C-1.93145 141.769 -0.556203 140.58 1.70192 140.58C4.16378 140.58 5.38622 142.023 5.38622 144.129V147.66C5.38622 148.747 5.48809 149.375 5.69183 149.867H3.79026C3.65443 149.528 3.6035 149.052 3.58652 148.543C2.82249 149.613 1.65098 150.088 0.564369 150.088C-1.26929 150.088 -2.52569 149.222 -2.52569 147.49C-2.52569 146.251 -1.84656 145.334 -0.48829 144.876C0.717174 144.468 1.93962 144.366 3.56954 144.349V144.145C3.56954 142.821 2.95832 142.108 1.56609 142.108C0.394585 142.108 -0.233614 142.753 -0.403398 143.772ZM-0.69203 147.422C-0.69203 148.186 -0.0638307 148.662 0.903936 148.662C2.41501 148.662 3.56954 147.456 3.56954 145.996V145.589C0.0889746 145.623 -0.69203 146.387 -0.69203 147.422ZM7.63625 153.823C7.24575 153.823 6.83827 153.721 6.63453 153.653V152.261H7.1269C8.16258 152.261 8.55308 152.057 9.33409 150.173L9.60574 149.545L5.97237 140.818H7.92488L10.166 146.455L10.5565 147.694L10.947 146.455L13.1203 140.818H14.9709L10.8621 150.92C9.94531 153.178 9.2492 153.823 7.63625 153.823ZM26.5557 149.867L24.756 143.432L24.5692 142.414L24.3655 143.432L22.5658 149.867H20.3247L17.71 140.818H19.6625L21.3264 147.541L21.5471 148.56L21.7848 147.541L23.6864 140.818H25.6049L27.5235 147.541L27.7272 148.509L27.931 147.541L29.5948 140.818H31.4625L28.8308 149.867H26.5557ZM32.3127 139.697V137.643H34.1294V139.697H32.3127ZM32.3127 149.867V140.818H34.1294V149.867H32.3127ZM36.1384 147.168V142.227H34.916V140.818H36.1384V138.729H37.9551V140.818H39.9076V142.227H37.9551V147.066C37.9551 148.101 38.2437 148.594 39.5171 148.594H39.8736V149.918C39.6699 150.02 39.2454 150.088 38.7361 150.088C36.9703 150.088 36.1384 149.12 36.1384 147.168ZM40.8483 149.867V137.643H42.665V142.023C43.2762 141.055 44.227 140.58 45.3985 140.58C47.2831 140.58 48.4546 141.684 48.4546 143.823V149.867H46.6549V144.196C46.6549 142.889 46.0776 142.091 44.8382 142.091C43.48 142.091 42.665 143.297 42.665 144.553V149.867H40.8483ZM60.8049 143.976H58.9882C58.7675 142.685 57.9356 142.108 56.8829 142.108C55.3718 142.108 54.5569 143.263 54.5569 145.351C54.5569 147.405 55.4058 148.577 56.9339 148.577C58.0205 148.577 58.7845 147.983 59.0561 146.828H60.8559C60.4653 149.086 58.9033 150.088 56.8999 150.088C54.2852 150.088 52.7062 148.288 52.7062 145.351C52.7062 142.278 54.3192 140.58 56.8829 140.58C58.9033 140.58 60.4993 141.718 60.8049 143.976ZM63.8391 143.772H62.0224C62.3111 141.769 63.6863 140.58 65.9444 140.58C68.4063 140.58 69.6288 142.023 69.6288 144.129V147.66C69.6288 148.747 69.7306 149.375 69.9344 149.867H68.0328C67.897 149.528 67.846 149.052 67.829 148.543C67.065 149.613 65.8935 150.088 64.8069 150.088C62.9732 150.088 61.7168 149.222 61.7168 147.49C61.7168 146.251 62.396 145.334 63.7542 144.876C64.9597 144.468 66.1821 144.366 67.8121 144.349V144.145C67.8121 142.821 67.2008 142.108 65.8086 142.108C64.6371 142.108 64.0089 142.753 63.8391 143.772ZM63.5505 147.422C63.5505 148.186 64.1787 148.662 65.1465 148.662C66.6575 148.662 67.8121 147.456 67.8121 145.996V145.589C64.3315 145.623 63.5505 146.387 63.5505 147.422ZM71.4823 149.867V140.818H73.299V142.159C73.8932 141.072 74.827 140.58 75.8797 140.58C76.2362 140.58 76.5758 140.665 76.7456 140.818V142.414C76.4739 142.329 76.1514 142.295 75.7778 142.295C74.046 142.295 73.299 143.347 73.299 144.926V149.867H71.4823ZM80.7873 150.088C78.3933 150.088 76.9501 148.305 76.9501 145.351C76.9501 142.278 78.4273 140.58 80.7873 140.58C81.8229 140.58 82.6719 141.004 83.2491 141.836V137.643H85.0658V149.867H83.2491V148.764C82.6719 149.613 81.8229 150.088 80.7873 150.088ZM81.0249 148.56C82.4681 148.56 83.2491 147.439 83.2491 145.351C83.2491 143.28 82.4342 142.108 81.0249 142.108C79.5818 142.108 78.8008 143.263 78.8008 145.351C78.8008 147.405 79.6157 148.56 81.0249 148.56Z" fill="#046E3C"/>
<rect x="-80.4277" y="110.664" width="184.752" height="66.4134" rx="33.2067" stroke="#6FD4A5" stroke-width="1.5" shape-rendering="crispEdges"/>
</g>
<g filter="url(#filter4_d_6553_24079)">
<rect x="117.496" y="109.914" width="198.252" height="67.9134" rx="33.9567" fill="white" shape-rendering="crispEdges"/>
<rect x="131.146" y="123.5" width="40.7481" height="40.7481" rx="20.374" fill="#A4DE9B" fill-opacity="0.5"/>
<path d="M162.877 139.07L152.304 145.174L136.445 136.019L147.019 129.914L162.877 139.07Z" fill="#07B463"/>
<path d="M162.878 139.07V145.177L160.234 143.65L154.949 146.701V152.806L152.305 154.333V145.175L162.878 139.07Z" fill="#046E3C"/>
<path d="M165.519 146.7L160.231 149.753L154.945 146.7L160.231 143.648L162.875 145.175L165.519 146.7Z" fill="#6FD4A5"/>
<path d="M165.523 146.704L160.234 149.758L162.877 154.335L168.166 151.282L165.523 146.704Z" fill="#E6F8EF"/>
<path d="M170.806 152.8L165.521 155.853L162.877 154.327L168.165 151.273L170.806 152.8Z" fill="#6FD4A5"/>
<path d="M170.807 152.797V158.901L165.521 161.955V155.85L170.807 152.797Z" fill="#99E0BF"/>
<path d="M165.519 155.869V161.973L154.945 155.869V146.711L160.231 149.764L162.875 154.342L165.519 155.869Z" fill="#31C17E"/>
<path d="M152.304 145.187V154.345L148.418 152.101L144.757 149.987L142.196 148.507L138.807 146.551L136.445 145.187V136.031L152.304 145.187Z" fill="#057E45"/>
<path d="M186.786 149.867V138.322H190.895C193.595 138.322 195.258 139.731 195.258 142.04C195.258 144.4 193.561 145.775 190.929 145.775H188.688V149.867H186.786ZM190.878 139.85H188.688V144.247H190.827C192.423 144.247 193.306 143.398 193.306 142.057C193.306 140.716 192.406 139.85 190.878 139.85ZM198.27 143.772H196.454C196.742 141.769 198.118 140.58 200.376 140.58C202.838 140.58 204.06 142.023 204.06 144.129V147.66C204.06 148.747 204.162 149.375 204.366 149.867H202.464C202.328 149.528 202.277 149.052 202.26 148.543C201.496 149.613 200.325 150.088 199.238 150.088C197.405 150.088 196.148 149.222 196.148 147.49C196.148 146.251 196.827 145.334 198.186 144.876C199.391 144.468 200.613 144.366 202.243 144.349V144.145C202.243 142.821 201.632 142.108 200.24 142.108C199.068 142.108 198.44 142.753 198.27 143.772ZM197.982 147.422C197.982 148.186 198.61 148.662 199.578 148.662C201.089 148.662 202.243 147.456 202.243 145.996V145.589C198.763 145.623 197.982 146.387 197.982 147.422ZM206.31 153.823C205.92 153.823 205.512 153.721 205.308 153.653V152.261H205.801C206.836 152.261 207.227 152.057 208.008 150.173L208.28 149.545L204.646 140.818H206.599L208.84 146.455L209.23 147.694L209.621 146.455L211.794 140.818H213.645L209.536 150.92C208.619 153.178 207.923 153.823 206.31 153.823ZM221.104 150.088C218.472 150.088 216.876 148.305 216.876 145.351C216.876 142.278 218.523 140.58 221.104 140.58C223.735 140.58 225.331 142.397 225.331 145.351C225.331 148.407 223.685 150.088 221.104 150.088ZM221.104 148.56C222.649 148.56 223.481 147.439 223.481 145.351C223.481 143.28 222.632 142.108 221.104 142.108C219.576 142.108 218.727 143.246 218.727 145.351C218.727 147.405 219.576 148.56 221.104 148.56ZM226.676 149.867V140.818H228.492V142.023C229.104 141.055 230.054 140.58 231.226 140.58C233.11 140.58 234.282 141.684 234.282 143.823V149.867H232.482V144.196C232.482 142.889 231.905 142.091 230.666 142.091C229.307 142.091 228.492 143.297 228.492 144.553V149.867H226.676ZM242.371 150.088C239.977 150.088 238.534 148.305 238.534 145.351C238.534 142.278 240.011 140.58 242.371 140.58C243.406 140.58 244.255 141.004 244.833 141.836V137.643H246.649V149.867H244.833V148.764C244.255 149.613 243.406 150.088 242.371 150.088ZM242.608 148.56C244.052 148.56 244.833 147.439 244.833 145.351C244.833 143.28 244.018 142.108 242.608 142.108C241.165 142.108 240.384 143.263 240.384 145.351C240.384 147.405 241.199 148.56 242.608 148.56ZM256.447 146.913C255.954 149.018 254.392 150.088 252.27 150.088C249.604 150.088 247.974 148.305 247.974 145.351C247.974 142.278 249.604 140.58 252.185 140.58C254.8 140.58 256.379 142.346 256.379 145.249V145.691H249.825C249.927 147.541 250.793 148.577 252.27 148.577C253.424 148.577 254.239 148.034 254.545 146.913H256.447ZM252.185 142.091C250.878 142.091 250.097 142.923 249.876 144.451H254.494C254.273 142.923 253.475 142.091 252.185 142.091ZM257.774 149.867V137.643H259.591V149.867H257.774ZM261.362 139.697V137.643H263.179V139.697H261.362ZM261.362 149.867V140.818H263.179V149.867H261.362ZM267.242 149.867L263.914 140.818H265.867L268.193 147.541L268.413 148.407L268.634 147.541L270.943 140.818H272.794L269.466 149.867H267.242ZM281.526 146.913C281.034 149.018 279.472 150.088 277.35 150.088C274.684 150.088 273.054 148.305 273.054 145.351C273.054 142.278 274.684 140.58 277.265 140.58C279.879 140.58 281.458 142.346 281.458 145.249V145.691H274.905C275.007 147.541 275.872 148.577 277.35 148.577C278.504 148.577 279.319 148.034 279.625 146.913H281.526ZM277.265 142.091C275.957 142.091 275.176 142.923 274.956 144.451H279.574C279.353 142.923 278.555 142.091 277.265 142.091ZM282.853 149.867V140.818H284.67V142.159C285.264 141.072 286.198 140.58 287.251 140.58C287.607 140.58 287.947 140.665 288.117 140.818V142.414C287.845 142.329 287.522 142.295 287.149 142.295C285.417 142.295 284.67 143.347 284.67 144.926V149.867H282.853ZM289.574 153.823C289.183 153.823 288.776 153.721 288.572 153.653V152.261H289.064C290.1 152.261 290.491 152.057 291.272 150.173L291.543 149.545L287.91 140.818H289.862L292.103 146.455L292.494 147.694L292.884 146.455L295.058 140.818H296.908L292.8 150.92C291.883 153.178 291.187 153.823 289.574 153.823Z" fill="#046E3C"/>
<rect x="118.246" y="110.664" width="196.752" height="66.4134" rx="33.2067" stroke="#6FD4A5" stroke-width="1.5" shape-rendering="crispEdges"/>
</g>
<g filter="url(#filter5_d_6553_24079)">
<rect x="328.172" y="109.914" width="186.252" height="67.9134" rx="33.9567" fill="white" shape-rendering="crispEdges"/>
<g clip-path="url(#clip3_6553_24079)">
<rect x="341.822" y="123.5" width="40.7481" height="40.7481" rx="20.374" fill="#A4DE9B" fill-opacity="0.5"/>
<path d="M369.784 157.586L345.496 146.584L346.936 143.331L350.677 145.026L366.105 152.011L371.089 154.27L369.784 157.586Z" fill="black"/>
<path d="M369.243 158.96L344.895 147.934L345.494 146.582L369.782 157.583L369.243 158.96Z" fill="#046E3C"/>
<path d="M372.879 155.077L372.873 155.07" stroke="black" stroke-width="0.848918" stroke-miterlimit="10"/>
<path d="M371.767 153.428L371.762 153.422" stroke="black" stroke-width="0.848918" stroke-miterlimit="10"/>
<path d="M368.771 139.577L368.766 139.57" stroke="black" stroke-width="0.848918" stroke-miterlimit="10"/>
<path d="M374.912 142.356L365.351 137.995L361.113 139.358L362.34 142.195L368.976 152.742L371.406 153.562L374.912 142.356Z" fill="#146B07"/>
<path d="M371.474 153.291L371.551 153.098C370.694 151.822 369.824 150.528 368.953 149.232C366.752 145.944 364.552 142.652 362.572 139.668L365.336 138.022L359.839 135.534L351.969 131.968L348.438 139.941L347.365 142.371L346.941 143.324L350.682 145.019L366.11 152.004L371.094 154.263L371.474 153.291ZM351.125 144.075L352.255 141.67L367.684 148.657L366.555 151.062L351.125 144.075Z" fill="#046E3C"/>
<path d="M367.566 148.716L352.299 141.606L351.164 144.137L366.547 150.954L367.566 148.716Z" fill="#99E0BF"/>
<path d="M372.696 133.838L359.594 143.421L356.435 145.73C359.185 149.111 362.238 152.84 365.291 156.564C366.5 158.032 367.706 159.497 368.894 160.942C368.994 161.066 369.093 161.185 369.193 161.309L369.195 161.311C369.713 161.94 370.225 162.559 370.733 163.174L370.735 163.176C374.473 167.72 377.923 171.897 380.467 174.967L397.572 160.639C392.778 155.575 381.576 143.689 372.696 133.838ZM366.594 142.249L369.411 140.512C369.766 140.294 370.229 140.362 370.503 140.674L373.481 144.032C373.829 144.426 373.862 145.009 373.562 145.44L372.733 146.636C372.557 146.893 372.283 147.064 371.974 147.115L370.915 147.29L370.465 147.365C370.07 147.43 369.674 147.289 369.412 146.988L369.15 146.687L369.147 146.685L366.397 143.541C366.048 143.142 366.145 142.529 366.594 142.249ZM365.382 143.516L367.668 146.181L370.688 149.704L369.272 150.89L363.943 144.909L363.702 144.636L365.385 143.518L365.382 143.516ZM366.336 154.418L359.543 146.818L360.915 146.042L367.436 153.569L366.336 154.418ZM376.059 158.457L370.486 152.201L372.169 151.083L377.475 157.271L376.059 158.457ZM383.449 166.736L377.874 160.477L379.56 159.362L384.862 165.547L383.449 166.736Z" fill="#07B463"/>
<path d="M370.691 149.683L369.275 150.87L363.946 144.889L363.703 144.613L365.386 143.496L367.671 146.161L370.691 149.683Z" fill="#31C17E"/>
<path d="M367.435 153.564L366.335 154.413L359.541 146.813L360.914 146.037L367.435 153.564Z" fill="#31C17E"/>
<path d="M377.474 157.254L376.058 158.44L370.486 152.184L372.169 151.066L377.474 157.254Z" fill="#31C17E"/>
<path d="M384.867 165.535L383.453 166.724L377.878 160.465L379.564 159.349L384.867 165.535Z" fill="#31C17E"/>
<path d="M371.975 147.108L370.915 147.284L370.465 147.358C370.07 147.423 369.674 147.283 369.412 146.982L369.15 146.681L369.147 146.678L366.397 143.534C366.049 143.135 366.145 142.522 366.594 142.242L369.411 140.506C369.766 140.288 370.229 140.355 370.504 140.668L373.481 144.025C373.829 144.419 373.862 145.003 373.562 145.434L372.733 146.629C372.557 146.886 372.283 147.057 371.975 147.108Z" fill="#99E0BF"/>
</g>
<path d="M397.462 149.867V138.322H401.571C404.27 138.322 405.934 139.731 405.934 142.04C405.934 144.4 404.236 145.775 401.605 145.775H399.364V149.867H397.462ZM401.554 139.85H399.364V144.247H401.503C403.099 144.247 403.982 143.398 403.982 142.057C403.982 140.716 403.082 139.85 401.554 139.85ZM408.946 143.772H407.13C407.418 141.769 408.793 140.58 411.052 140.58C413.513 140.58 414.736 142.023 414.736 144.129V147.66C414.736 148.747 414.838 149.375 415.041 149.867H413.14C413.004 149.528 412.953 149.052 412.936 148.543C412.172 149.613 411.001 150.088 409.914 150.088C408.08 150.088 406.824 149.222 406.824 147.49C406.824 146.251 407.503 145.334 408.861 144.876C410.067 144.468 411.289 144.366 412.919 144.349V144.145C412.919 142.821 412.308 142.108 410.916 142.108C409.744 142.108 409.116 142.753 408.946 143.772ZM408.658 147.422C408.658 148.186 409.286 148.662 410.254 148.662C411.765 148.662 412.919 147.456 412.919 145.996V145.589C409.439 145.623 408.658 146.387 408.658 147.422ZM416.986 153.823C416.595 153.823 416.188 153.721 415.984 153.653V152.261H416.477C417.512 152.261 417.903 152.057 418.684 150.173L418.955 149.545L415.322 140.818H417.274L419.516 146.455L419.906 147.694L420.297 146.455L422.47 140.818H424.321L420.212 150.92C419.295 153.178 418.599 153.823 416.986 153.823ZM435.905 149.867L434.106 143.432L433.919 142.414L433.715 143.432L431.915 149.867H429.674L427.06 140.818H429.012L430.676 147.541L430.897 148.56L431.134 147.541L433.036 140.818H434.955L436.873 147.541L437.077 148.509L437.281 147.541L438.944 140.818H440.812L438.18 149.867H435.905ZM441.662 139.697V137.643H443.479V139.697H441.662ZM441.662 149.867V140.818H443.479V149.867H441.662ZM445.488 147.168V142.227H444.266V140.818H445.488V138.729H447.305V140.818H449.257V142.227H447.305V147.066C447.305 148.101 447.593 148.594 448.867 148.594H449.223V149.918C449.02 150.02 448.595 150.088 448.086 150.088C446.32 150.088 445.488 149.12 445.488 147.168ZM450.198 149.867V137.643H452.015V142.023C452.626 141.055 453.577 140.58 454.748 140.58C456.633 140.58 457.804 141.684 457.804 143.823V149.867H456.005V144.196C456.005 142.889 455.427 142.091 454.188 142.091C452.83 142.091 452.015 143.297 452.015 144.553V149.867H450.198ZM470.155 143.976H468.338C468.117 142.685 467.285 142.108 466.233 142.108C464.721 142.108 463.906 143.263 463.906 145.351C463.906 147.405 464.755 148.577 466.283 148.577C467.37 148.577 468.134 147.983 468.406 146.828H470.205C469.815 149.086 468.253 150.088 466.25 150.088C463.635 150.088 462.056 148.288 462.056 145.351C462.056 142.278 463.669 140.58 466.233 140.58C468.253 140.58 469.849 141.718 470.155 143.976ZM473.189 143.772H471.372C471.661 141.769 473.036 140.58 475.294 140.58C477.756 140.58 478.978 142.023 478.978 144.129V147.66C478.978 148.747 479.08 149.375 479.284 149.867H477.382C477.247 149.528 477.196 149.052 477.179 148.543C476.415 149.613 475.243 150.088 474.157 150.088C472.323 150.088 471.066 149.222 471.066 147.49C471.066 146.251 471.746 145.334 473.104 144.876C474.309 144.468 475.532 144.366 477.162 144.349V144.145C477.162 142.821 476.55 142.108 475.158 142.108C473.987 142.108 473.359 142.753 473.189 143.772ZM472.9 147.422C472.9 148.186 473.528 148.662 474.496 148.662C476.007 148.662 477.162 147.456 477.162 145.996V145.589C473.681 145.623 472.9 146.387 472.9 147.422ZM480.832 149.867V140.818H482.649V142.159C483.243 141.072 484.177 140.58 485.229 140.58C485.586 140.58 485.925 140.665 486.095 140.818V142.414C485.824 142.329 485.501 142.295 485.127 142.295C483.396 142.295 482.649 143.347 482.649 144.926V149.867H480.832ZM490.137 150.088C487.743 150.088 486.3 148.305 486.3 145.351C486.3 142.278 487.777 140.58 490.137 140.58C491.173 140.58 492.021 141.004 492.599 141.836V137.643H494.415V149.867H492.599V148.764C492.021 149.613 491.173 150.088 490.137 150.088ZM490.375 148.56C491.818 148.56 492.599 147.439 492.599 145.351C492.599 143.28 491.784 142.108 490.375 142.108C488.931 142.108 488.15 143.263 488.15 145.351C488.15 147.405 488.965 148.56 490.375 148.56Z" fill="#046E3C"/>
<rect x="328.922" y="110.664" width="184.752" height="66.4134" rx="33.2067" stroke="#6FD4A5" stroke-width="1.5" shape-rendering="crispEdges"/>
</g>
</g>
<defs>
<filter id="filter0_d_6553_24079" x="-6.32617" y="28" width="218.252" height="71.9141" filterUnits="userSpaceOnUse" color-interpolation-filters="sRGB">
<feFlood flood-opacity="0" result="BackgroundImageFix"/>
<feColorMatrix in="SourceAlpha" type="matrix" values="0 0 0 0 0 0 0 0 0 0 0 0 0 0 0 0 0 0 127 0" result="hardAlpha"/>
<feOffset dy="1"/>
<feGaussianBlur stdDeviation="1"/>
<feComposite in2="hardAlpha" operator="out"/>
<feColorMatrix type="matrix" values="0 0 0 0 0.184314 0 0 0 0 0.168627 0 0 0 0 0.262745 0 0 0 0.1 0"/>
<feBlend mode="normal" in2="BackgroundImageFix" result="effect1_dropShadow_6553_24079"/>
<feBlend mode="normal" in="SourceGraphic" in2="effect1_dropShadow_6553_24079" result="shape"/>
</filter>
<filter id="filter1_d_6553_24079" x="220.35" y="28" width="199.252" height="71.9141" filterUnits="userSpaceOnUse" color-interpolation-filters="sRGB">
<feFlood flood-opacity="0" result="BackgroundImageFix"/>
<feColorMatrix in="SourceAlpha" type="matrix" values="0 0 0 0 0 0 0 0 0 0 0 0 0 0 0 0 0 0 127 0" result="hardAlpha"/>
<feOffset dy="1"/>
<feGaussianBlur stdDeviation="1"/>
<feComposite in2="hardAlpha" operator="out"/>
<feColorMatrix type="matrix" values="0 0 0 0 0.184314 0 0 0 0 0.168627 0 0 0 0 0.262745 0 0 0 0.1 0"/>
<feBlend mode="normal" in2="BackgroundImageFix" result="effect1_dropShadow_6553_24079"/>
<feBlend mode="normal" in="SourceGraphic" in2="effect1_dropShadow_6553_24079" result="shape"/>
</filter>
<filter id="filter2_d_6553_24079" x="428.023" y="28" width="202.252" height="71.9141" filterUnits="userSpaceOnUse" color-interpolation-filters="sRGB">
<feFlood flood-opacity="0" result="BackgroundImageFix"/>
<feColorMatrix in="SourceAlpha" type="matrix" values="0 0 0 0 0 0 0 0 0 0 0 0 0 0 0 0 0 0 127 0" result="hardAlpha"/>
<feOffset dy="1"/>
<feGaussianBlur stdDeviation="1"/>
<feComposite in2="hardAlpha" operator="out"/>
<feColorMatrix type="matrix" values="0 0 0 0 0.184314 0 0 0 0 0.168627 0 0 0 0 0.262745 0 0 0 0.1 0"/>
<feBlend mode="normal" in2="BackgroundImageFix" result="effect1_dropShadow_6553_24079"/>
<feBlend mode="normal" in="SourceGraphic" in2="effect1_dropShadow_6553_24079" result="shape"/>
</filter>
<filter id="filter3_d_6553_24079" x="-83.1777" y="108.914" width="190.252" height="71.9141" filterUnits="userSpaceOnUse" color-interpolation-filters="sRGB">
<feFlood flood-opacity="0" result="BackgroundImageFix"/>
<feColorMatrix in="SourceAlpha" type="matrix" values="0 0 0 0 0 0 0 0 0 0 0 0 0 0 0 0 0 0 127 0" result="hardAlpha"/>
<feOffset dy="1"/>
<feGaussianBlur stdDeviation="1"/>
<feComposite in2="hardAlpha" operator="out"/>
<feColorMatrix type="matrix" values="0 0 0 0 0.184314 0 0 0 0 0.168627 0 0 0 0 0.262745 0 0 0 0.1 0"/>
<feBlend mode="normal" in2="BackgroundImageFix" result="effect1_dropShadow_6553_24079"/>
<feBlend mode="normal" in="SourceGraphic" in2="effect1_dropShadow_6553_24079" result="shape"/>
</filter>
<filter id="filter4_d_6553_24079" x="115.496" y="108.914" width="202.252" height="71.9141" filterUnits="userSpaceOnUse" color-interpolation-filters="sRGB">
<feFlood flood-opacity="0" result="BackgroundImageFix"/>
<feColorMatrix in="SourceAlpha" type="matrix" values="0 0 0 0 0 0 0 0 0 0 0 0 0 0 0 0 0 0 127 0" result="hardAlpha"/>
<feOffset dy="1"/>
<feGaussianBlur stdDeviation="1"/>
<feComposite in2="hardAlpha" operator="out"/>
<feColorMatrix type="matrix" values="0 0 0 0 0.184314 0 0 0 0 0.168627 0 0 0 0 0.262745 0 0 0 0.1 0"/>
<feBlend mode="normal" in2="BackgroundImageFix" result="effect1_dropShadow_6553_24079"/>
<feBlend mode="normal" in="SourceGraphic" in2="effect1_dropShadow_6553_24079" result="shape"/>
</filter>
<filter id="filter5_d_6553_24079" x="326.172" y="108.914" width="190.252" height="71.9141" filterUnits="userSpaceOnUse" color-interpolation-filters="sRGB">
<feFlood flood-opacity="0" result="BackgroundImageFix"/>
<feColorMatrix in="SourceAlpha" type="matrix" values="0 0 0 0 0 0 0 0 0 0 0 0 0 0 0 0 0 0 127 0" result="hardAlpha"/>
<feOffset dy="1"/>
<feGaussianBlur stdDeviation="1"/>
<feComposite in2="hardAlpha" operator="out"/>
<feColorMatrix type="matrix" values="0 0 0 0 0.184314 0 0 0 0 0.168627 0 0 0 0 0.262745 0 0 0 0.1 0"/>
<feBlend mode="normal" in2="BackgroundImageFix" result="effect1_dropShadow_6553_24079"/>
<feBlend mode="normal" in="SourceGraphic" in2="effect1_dropShadow_6553_24079" result="shape"/>
</filter>
<clipPath id="clip0_6553_24079">
<rect width="464" height="205" rx="16" fill="white"/>
</clipPath>
<clipPath id="clip1_6553_24079">
<rect x="9.32422" y="42.5859" width="40.7481" height="40.7481" rx="20.374" fill="white"/>
</clipPath>
<clipPath id="clip2_6553_24079">
<rect x="236" y="42.5859" width="40.7481" height="40.7481" rx="20.374" fill="white"/>
</clipPath>
<clipPath id="clip3_6553_24079">
<rect x="341.822" y="123.5" width="40.7481" height="40.7481" rx="20.374" fill="white"/>
</clipPath>
</defs>
</svg>
