<svg width="343" height="205" viewBox="0 0 343 205" fill="none" xmlns="http://www.w3.org/2000/svg">
<g clip-path="url(#clip0_6555_24236)">
<rect width="343" height="205" rx="16" fill="#E6F8EF"/>
<g filter="url(#filter0_d_6555_24236)">
<rect x="-34.0156" y="39.8281" width="172.433" height="54.6708" rx="27.3354" fill="white" shape-rendering="crispEdges"/>
<g clip-path="url(#clip1_6555_24236)">
<rect x="-23.0273" y="50.7656" width="32.8025" height="32.8025" rx="16.4012" fill="#A4DE9B" fill-opacity="0.5"/>
<path d="M-18.2988 59.1328L4.6136 70.8618L6.4832 71.8192L6.57284 63.846L-18.2988 59.1328Z" fill="#6FD4A5"/>
<path d="M-18.3027 59.1328L-1.15734 77.4413L6.33666 85.4448L6.45241 75.1542L2.38245 72.5154L-18.2979 59.1336L-18.3027 59.1328Z" fill="#6FD4A5"/>
<path d="M-18.3027 59.1328L-3.5308 79.1971L-1.15734 77.4413L-18.3027 59.1328Z" fill="#046E3C"/>
<path d="M-18.2988 59.1328L2.38147 72.5146L4.6136 70.8618L-18.2988 59.1328Z" fill="#046E3C"/>
</g>
<path d="M21.7634 71.6641V62.37H25.071C27.2441 62.37 28.5836 63.5044 28.5836 65.3633C28.5836 67.2631 27.2168 68.3701 25.0983 68.3701H23.2941V71.6641H21.7634ZM25.0573 63.6001H23.2941V67.1401H25.0163C26.301 67.1401 27.0118 66.4567 27.0118 65.3769C27.0118 64.2972 26.2874 63.6001 25.0573 63.6001ZM31.0082 66.7574H29.5457C29.7781 65.1446 30.8852 64.1878 32.703 64.1878C34.6848 64.1878 35.6689 65.3496 35.6689 67.0444V69.8873C35.6689 70.762 35.7509 71.2677 35.9149 71.6641H34.3841C34.2748 71.3907 34.2338 71.008 34.2201 70.598C33.605 71.459 32.662 71.8417 31.7872 71.8417C30.3111 71.8417 29.2997 71.1447 29.2997 69.7506C29.2997 68.7528 29.8464 68.0148 30.9398 67.6458C31.9102 67.3177 32.8943 67.2357 34.2064 67.2221V67.058C34.2064 65.992 33.7144 65.4179 32.5936 65.4179C31.6506 65.4179 31.1449 65.9373 31.0082 66.7574ZM30.7758 69.6959C30.7758 70.311 31.2815 70.6937 32.0606 70.6937C33.277 70.6937 34.2064 69.7232 34.2064 68.5478V68.2198C31.4045 68.2471 30.7758 68.8622 30.7758 69.6959ZM37.4802 74.8486C37.1658 74.8486 36.8378 74.7666 36.6738 74.712V73.5912H37.0701C37.9039 73.5912 38.2182 73.4272 38.8469 71.9101L39.0656 71.4044L36.1407 64.3792H37.7125L39.5166 68.9169L39.831 69.9146L40.1454 68.9169L41.8948 64.3792H43.3846L40.077 72.5115C39.339 74.3293 38.7786 74.8486 37.4802 74.8486ZM52.7105 71.6641L51.2617 66.484L51.1113 65.6639L50.9473 66.484L49.4985 71.6641H47.6944L45.5896 64.3792H47.1614L48.5008 69.7916L48.6785 70.6116L48.8698 69.7916L50.4006 64.3792H51.9451L53.4895 69.7916L53.6535 70.5706L53.8175 69.7916L55.157 64.3792H56.6604L54.5419 71.6641H52.7105ZM57.3449 63.4771V61.8233H58.8073V63.4771H57.3449ZM57.3449 71.6641V64.3792H58.8073V71.6641H57.3449ZM60.4246 69.4909V65.5136H59.4405V64.3792H60.4246V62.6981H61.887V64.3792H63.4588V65.5136H61.887V69.4089C61.887 70.2426 62.1194 70.639 63.1445 70.639H63.4315V71.7051C63.2675 71.7871 62.9258 71.8417 62.5158 71.8417C61.0943 71.8417 60.4246 71.0627 60.4246 69.4909ZM64.2161 71.6641V61.8233H65.6785V65.3496C66.1706 64.5705 66.936 64.1878 67.879 64.1878C69.3962 64.1878 70.3392 65.0762 70.3392 66.7984V71.6641H68.8905V67.0991C68.8905 66.0466 68.4258 65.4043 67.428 65.4043C66.3346 65.4043 65.6785 66.3747 65.6785 67.3861V71.6641H64.2161ZM76.4608 71.6641V63.6548H73.3582V62.37H81.0804V63.6548H77.9915V71.6641H76.4608ZM81.3968 71.6641V64.3792H82.8593V65.4589C83.3376 64.5842 84.0894 64.1878 84.9368 64.1878C85.2238 64.1878 85.4971 64.2562 85.6338 64.3792V65.6639C85.4151 65.5956 85.1554 65.5683 84.8548 65.5683C83.4607 65.5683 82.8593 66.4157 82.8593 67.6868V71.6641H81.3968ZM87.561 66.7574H86.0985C86.3309 65.1446 87.438 64.1878 89.2558 64.1878C91.2376 64.1878 92.2216 65.3496 92.2216 67.0444V69.8873C92.2216 70.762 92.3037 71.2677 92.4677 71.6641H90.9369C90.8275 71.3907 90.7865 71.008 90.7729 70.598C90.1578 71.459 89.2148 71.8417 88.34 71.8417C86.8639 71.8417 85.8525 71.1447 85.8525 69.7506C85.8525 68.7528 86.3992 68.0148 87.4926 67.6458C88.463 67.3177 89.4471 67.2357 90.7592 67.2221V67.058C90.7592 65.992 90.2672 65.4179 89.1464 65.4179C88.2033 65.4179 87.6976 65.9373 87.561 66.7574ZM87.3286 69.6959C87.3286 70.311 87.8343 70.6937 88.6134 70.6937C89.8298 70.6937 90.7592 69.7232 90.7592 68.5478V68.2198C87.9573 68.2471 87.3286 68.8622 87.3286 69.6959ZM93.7138 71.6641V64.3792H95.1762V65.3496C95.6683 64.5705 96.4336 64.1878 97.3767 64.1878C98.8938 64.1878 99.8369 65.0762 99.8369 66.7984V71.6641H98.3881V67.0991C98.3881 66.0466 97.9234 65.4043 96.9257 65.4043C95.8323 65.4043 95.1762 66.3747 95.1762 67.3861V71.6641H93.7138ZM102.435 66.2927C102.435 68.1515 107.096 66.5933 107.096 69.5592C107.096 70.9397 105.852 71.8417 104.089 71.8417C102.326 71.8417 101.082 71.0217 100.809 69.2859H102.271C102.422 70.2016 103.105 70.7073 104.13 70.7073C105.114 70.7073 105.634 70.27 105.634 69.6549C105.634 67.8371 101.041 69.3679 101.041 66.3747C101.041 65.2402 101.93 64.1878 103.775 64.1878C105.401 64.1878 106.604 64.9396 106.836 66.7574H105.374C105.21 65.7323 104.636 65.3496 103.707 65.3496C102.9 65.3496 102.435 65.7459 102.435 66.2927ZM107.266 65.5136V64.3792H108.25V63.9965C108.25 62.411 108.92 61.6456 110.287 61.6456C110.656 61.6456 110.943 61.714 111.093 61.7823V62.7664H110.956C109.945 62.7664 109.699 63.1764 109.699 64.0102V64.3792H111.093V65.5136H109.699V71.6641H108.25V65.5136H107.266ZM118.12 69.2859C117.724 70.9807 116.466 71.8417 114.758 71.8417C112.612 71.8417 111.3 70.4066 111.3 68.0285C111.3 65.5546 112.612 64.1878 114.69 64.1878C116.794 64.1878 118.065 65.6093 118.065 67.9464V68.3018H112.79C112.872 69.7916 113.569 70.6253 114.758 70.6253C115.687 70.6253 116.343 70.188 116.589 69.2859H118.12ZM114.69 65.4043C113.637 65.4043 113.008 66.074 112.831 67.3041H116.548C116.371 66.074 115.728 65.4043 114.69 65.4043ZM119.189 71.6641V64.3792H120.651V65.4589C121.129 64.5842 121.881 64.1878 122.728 64.1878C123.016 64.1878 123.289 64.2562 123.426 64.3792V65.6639C123.207 65.5956 122.947 65.5683 122.646 65.5683C121.252 65.5683 120.651 66.4157 120.651 67.6868V71.6641H119.189Z" fill="#046E3C"/>
<rect x="-33.5156" y="40.3281" width="171.433" height="53.6708" rx="26.8354" stroke="#6FD4A5" shape-rendering="crispEdges"/>
</g>
<g filter="url(#filter1_d_6555_24236)">
<rect x="148.418" y="39.8281" width="157.433" height="54.6708" rx="27.3354" fill="white" shape-rendering="crispEdges"/>
<g clip-path="url(#clip2_6555_24236)">
<rect x="159.406" y="50.7656" width="32.8025" height="32.8025" rx="16.4012" fill="#A4DE9B" fill-opacity="0.5"/>
<path d="M181.498 72.0312V74.3462L179.439 75.4233V73.1691L181.498 72.0312Z" fill="#07B463"/>
<path d="M187.474 68.5391V70.854L185.416 71.9311V69.6769L187.474 68.5391Z" fill="#07B463"/>
<path d="M175.491 68.5304L173.486 69.6869L171.481 68.5304L169.475 67.3719L167.47 66.2154L165.465 65.0569L167.47 63.8984L169.475 65.0569L171.481 66.2154L173.486 67.3719L175.491 68.5304Z" fill="#6FD4A5"/>
<path d="M167.47 66.2132L165.465 67.3697V65.0547L167.47 66.2132Z" fill="#057E45"/>
<path d="M173.487 69.6878L171.482 70.8462L169.477 69.6897L171.482 68.5312L173.487 69.6878Z" fill="#057E45"/>
<path d="M181.508 65.0463L179.503 66.2048L177.498 65.0463L175.492 63.8878L173.487 62.7293L169.467 60.4085L171.472 59.25L175.492 61.5728L177.498 62.7293H177.5L179.503 63.8878L181.508 65.0463Z" fill="#6FD4A5"/>
<path d="M173.487 62.7349L171.482 63.8934L169.467 62.729V60.4141L173.487 62.7349Z" fill="#057E45"/>
<path d="M177.498 65.0569L175.493 66.2134L173.488 67.3719L171.482 66.2154L173.49 65.0569L175.493 63.8984L177.498 65.0569Z" fill="#046E3C"/>
<path d="M179.505 66.2132L177.499 67.3697L175.494 66.2112L177.499 65.0547L179.505 66.2132Z" fill="#057E45"/>
<path d="M175.492 63.885L173.489 65.0435L171.482 66.202L169.477 65.0435L171.482 63.885L173.487 62.7266L175.492 63.885Z" fill="#31C17E"/>
<path d="M169.477 67.3674L167.471 68.5259L165.466 69.6844L163.461 68.5259L165.466 67.3674L167.471 66.2109L169.477 67.3674Z" fill="#31C17E"/>
<path d="M179.505 61.5725L177.501 62.729H177.499L175.494 61.5725L177.499 60.4141L179.505 61.5725Z" fill="#31C17E"/>
<path d="M171.481 68.51L169.475 69.6685L165.465 71.9835V69.6685L167.47 68.51L169.475 67.3516L171.481 68.51Z" fill="#046E3C"/>
<path d="M179.503 61.5703V63.8853L177.5 62.7268L179.503 61.5703Z" fill="#046E3C"/>
<path d="M165.466 69.6897V72.0047L163.461 70.8462V68.5312L165.466 69.6897Z" fill="#6FD4A5"/>
<path d="M187.525 63.8831L183.514 66.1981L181.509 67.3565L179.504 68.515L177.498 69.6735L175.493 70.83L173.488 71.9885L171.482 70.83L173.488 69.6715L175.493 68.515L177.498 67.3565L179.504 66.2L181.509 65.0415L185.519 62.7266L187.525 63.8831Z" fill="#6FD4A5"/>
<path d="M187.524 68.5201L185.518 69.6785L183.511 68.5201L181.508 67.3616L183.513 66.2031L185.518 67.3616L187.524 68.5201Z" fill="#31C17E"/>
<path d="M185.516 69.6685V71.9835L181.505 69.6665L179.5 68.51L181.505 67.3516L183.509 68.51L185.516 69.6685Z" fill="#057E45"/>
<path d="M181.509 69.6878L179.503 70.8462L177.498 69.6897L179.503 68.5312L181.509 69.6878Z" fill="#046E3C"/>
<path d="M181.51 72.0103L179.505 73.1668L177.499 72.0083L175.494 70.8518L177.499 69.6953L179.505 70.8518L181.51 72.0103Z" fill="#31C17E"/>
<path d="M179.506 73.1509V75.4679L175.496 73.1509L173.49 71.9944L175.496 70.8359L177.501 71.9924L179.506 73.1509Z" fill="#057E45"/>
<path d="M175.496 73.1487L173.49 74.3072V71.9922L175.496 73.1487Z" fill="#046E3C"/>
<path d="M173.488 71.9944V74.3094L171.482 73.1529V70.8359L173.488 71.9944Z" fill="#31C17E"/>
</g>
<path d="M204.197 71.6641V62.37H207.505C209.678 62.37 211.017 63.5044 211.017 65.3633C211.017 67.2631 209.65 68.3701 207.532 68.3701H205.728V71.6641H204.197ZM207.491 63.6001H205.728V67.1401H207.45C208.735 67.1401 209.445 66.4567 209.445 65.3769C209.445 64.2972 208.721 63.6001 207.491 63.6001ZM213.442 66.7574H211.979C212.212 65.1446 213.319 64.1878 215.137 64.1878C217.118 64.1878 218.102 65.3496 218.102 67.0444V69.8873C218.102 70.762 218.184 71.2677 218.348 71.6641H216.818C216.708 71.3907 216.667 71.008 216.654 70.598C216.039 71.459 215.096 71.8417 214.221 71.8417C212.745 71.8417 211.733 71.1447 211.733 69.7506C211.733 68.7528 212.28 68.0148 213.373 67.6458C214.344 67.3177 215.328 67.2357 216.64 67.2221V67.058C216.64 65.992 216.148 65.4179 215.027 65.4179C214.084 65.4179 213.578 65.9373 213.442 66.7574ZM213.209 69.6959C213.209 70.311 213.715 70.6937 214.494 70.6937C215.711 70.6937 216.64 69.7232 216.64 68.5478V68.2198C213.838 68.2471 213.209 68.8622 213.209 69.6959ZM219.914 74.8486C219.599 74.8486 219.271 74.7666 219.107 74.712V73.5912H219.504C220.337 73.5912 220.652 73.4272 221.281 71.9101L221.499 71.4044L218.574 64.3792H220.146L221.95 68.9169L222.265 69.9146L222.579 68.9169L224.328 64.3792H225.818L222.511 72.5115C221.773 74.3293 221.212 74.8486 219.914 74.8486ZM235.144 71.6641L233.695 66.484L233.545 65.6639L233.381 66.484L231.932 71.6641H230.128L228.023 64.3792H229.595L230.934 69.7916L231.112 70.6116L231.303 69.7916L232.834 64.3792H234.379L235.923 69.7916L236.087 70.5706L236.251 69.7916L237.591 64.3792H239.094L236.976 71.6641H235.144ZM239.778 63.4771V61.8233H241.241V63.4771H239.778ZM239.778 71.6641V64.3792H241.241V71.6641H239.778ZM242.858 69.4909V65.5136H241.874V64.3792H242.858V62.6981H244.321V64.3792H245.892V65.5136H244.321V69.4089C244.321 70.2426 244.553 70.639 245.578 70.639H245.865V71.7051C245.701 71.7871 245.359 71.8417 244.949 71.8417C243.528 71.8417 242.858 71.0627 242.858 69.4909ZM246.65 71.6641V61.8233H248.112V65.3496C248.604 64.5705 249.37 64.1878 250.313 64.1878C251.83 64.1878 252.773 65.0762 252.773 66.7984V71.6641H251.324V67.0991C251.324 66.0466 250.859 65.4043 249.862 65.4043C248.768 65.4043 248.112 66.3747 248.112 67.3861V71.6641H246.65ZM264.136 68.1241C264.136 70.434 262.688 71.8417 260.35 71.8417C258.013 71.8417 256.564 70.434 256.564 68.1241V62.37H258.095V68.1241C258.095 69.6822 258.943 70.6116 260.35 70.6116C261.772 70.6116 262.606 69.6686 262.606 68.1241V62.37H264.136V68.1241ZM266.919 64.6662C266.919 67.1127 272.55 65.1856 272.55 68.9852C272.55 70.8167 271.06 71.8417 269.024 71.8417C266.96 71.8417 265.538 70.8987 265.156 68.9579H266.755C267.014 70.0103 267.793 70.5843 269.037 70.5843C270.308 70.5843 270.978 70.0239 270.978 69.1902C270.978 66.566 265.347 68.5205 265.347 64.7892C265.347 63.3951 266.522 62.1923 268.641 62.1923C270.472 62.1923 271.976 63.0671 272.304 65.1036H270.677C270.418 63.9555 269.693 63.4498 268.6 63.4498C267.534 63.4498 266.919 63.9281 266.919 64.6662ZM274.932 64.6662C274.932 67.1127 280.564 65.1856 280.564 68.9852C280.564 70.8167 279.074 71.8417 277.037 71.8417C274.973 71.8417 273.552 70.8987 273.169 68.9579H274.768C275.028 70.0103 275.807 70.5843 277.051 70.5843C278.322 70.5843 278.992 70.0239 278.992 69.1902C278.992 66.566 273.361 68.5205 273.361 64.7892C273.361 63.3951 274.536 62.1923 276.655 62.1923C278.486 62.1923 279.989 63.0671 280.318 65.1036H278.691C278.431 63.9555 277.707 63.4498 276.614 63.4498C275.547 63.4498 274.932 63.9281 274.932 64.6662ZM281.702 71.6641V62.37H284.887C287.798 62.37 289.602 64.1195 289.602 67.0307C289.602 69.9419 287.798 71.6641 284.887 71.6641H281.702ZM284.887 70.4203C286.869 70.4203 288.044 69.1629 288.044 67.0307C288.044 64.8712 286.869 63.6138 284.887 63.6138H283.233V70.4203H284.887Z" fill="#046E3C"/>
<rect x="148.918" y="40.3281" width="156.433" height="53.6708" rx="26.8354" stroke="#6FD4A5" shape-rendering="crispEdges"/>
</g>
<g filter="url(#filter2_d_6555_24236)">
<rect x="315.852" y="39.8281" width="159.433" height="54.6708" rx="27.3354" fill="white" shape-rendering="crispEdges"/>
<rect x="326.84" y="50.7656" width="32.8025" height="32.8025" rx="16.4012" fill="#A4DE9B" fill-opacity="0.5"/>
<path d="M352.385 63.2922L343.874 68.2064L331.107 60.836L339.619 55.9219L352.385 63.2922Z" fill="#07B463"/>
<path d="M343.874 68.2141V75.5862L340.746 73.7804L337.799 72.0784L335.737 70.887L333.008 69.3123L331.107 68.2141V60.8438L343.874 68.2141Z" fill="#057E45"/>
<rect x="316.352" y="40.3281" width="158.433" height="53.6708" rx="26.8354" stroke="#6FD4A5" shape-rendering="crispEdges"/>
</g>
<g filter="url(#filter3_d_6555_24236)">
<rect x="-96.1367" y="104.5" width="149.433" height="54.6708" rx="27.3354" fill="white" shape-rendering="crispEdges"/>
<path d="M-40.3577 136.336V127.042H-37.0501C-34.877 127.042 -33.5375 128.176 -33.5375 130.035C-33.5375 131.935 -34.9043 133.042 -37.0228 133.042H-38.8269V136.336H-40.3577ZM-37.0638 128.272H-38.8269V131.812H-37.1048C-35.82 131.812 -35.1093 131.129 -35.1093 130.049C-35.1093 128.969 -35.8337 128.272 -37.0638 128.272ZM-31.1129 131.429H-32.5754C-32.343 129.816 -31.2359 128.86 -29.4181 128.86C-27.4363 128.86 -26.4522 130.021 -26.4522 131.716V134.559C-26.4522 135.434 -26.3702 135.94 -26.2062 136.336H-27.737C-27.8463 136.063 -27.8873 135.68 -27.901 135.27C-28.5161 136.131 -29.4591 136.514 -30.3339 136.514C-31.81 136.514 -32.8214 135.817 -32.8214 134.422C-32.8214 133.425 -32.2747 132.687 -31.1813 132.318C-30.2108 131.99 -29.2268 131.908 -27.9147 131.894V131.73C-27.9147 130.664 -28.4067 130.09 -29.5275 130.09C-30.4705 130.09 -30.9762 130.609 -31.1129 131.429ZM-31.3453 134.368C-31.3453 134.983 -30.8396 135.366 -30.0605 135.366C-28.8441 135.366 -27.9147 134.395 -27.9147 133.22V132.892C-30.7166 132.919 -31.3453 133.534 -31.3453 134.368ZM-24.6409 139.521C-24.9553 139.521 -25.2833 139.439 -25.4473 139.384V138.263H-25.051C-24.2172 138.263 -23.9029 138.099 -23.2742 136.582L-23.0555 136.076L-25.9804 129.051H-24.4086L-22.6045 133.589L-22.2901 134.586L-21.9757 133.589L-20.2263 129.051H-18.7365L-22.0441 137.183C-22.7821 139.001 -23.3425 139.521 -24.6409 139.521ZM-9.41063 136.336L-10.8594 131.156L-11.0098 130.336L-11.1738 131.156L-12.6225 136.336H-14.4267L-16.5315 129.051H-14.9597L-13.6203 134.463L-13.4426 135.284L-13.2513 134.463L-11.7205 129.051H-10.176L-8.63158 134.463L-8.46756 135.243L-8.30355 134.463L-6.96412 129.051H-5.46067L-7.57916 136.336H-9.41063ZM-4.77622 128.149V126.495H-3.31377V128.149H-4.77622ZM-4.77622 136.336V129.051H-3.31377V136.336H-4.77622ZM-1.6965 134.163V130.185H-2.68058V129.051H-1.6965V127.37H-0.234057V129.051H1.33773V130.185H-0.234057V134.081C-0.234057 134.914 -0.00170555 135.311 1.02337 135.311H1.31039V136.377C1.14638 136.459 0.804689 136.514 0.394658 136.514C-1.02678 136.514 -1.6965 135.735 -1.6965 134.163ZM2.095 136.336V126.495H3.55745V130.021C4.04949 129.242 4.81488 128.86 5.75795 128.86C7.27506 128.86 8.21813 129.748 8.21813 131.47V136.336H6.76936V131.771C6.76936 130.719 6.30466 130.076 5.30691 130.076C4.2135 130.076 3.55745 131.047 3.55745 132.058V136.336H2.095ZM18.1602 131.593H16.6978C16.5201 130.554 15.8504 130.09 15.003 130.09C13.7866 130.09 13.1305 131.019 13.1305 132.7C13.1305 134.354 13.8139 135.297 15.044 135.297C15.9187 135.297 16.5338 134.819 16.7524 133.889H18.2012C17.8869 135.707 16.6294 136.514 15.0166 136.514C12.9118 136.514 11.6407 135.065 11.6407 132.7C11.6407 130.226 12.9392 128.86 15.003 128.86C16.6294 128.86 17.9142 129.775 18.1602 131.593ZM20.6028 131.429H19.1403C19.3727 129.816 20.4798 128.86 22.2976 128.86C24.2794 128.86 25.2635 130.021 25.2635 131.716V134.559C25.2635 135.434 25.3455 135.94 25.5095 136.336H23.9787C23.8694 136.063 23.8284 135.68 23.8147 135.27C23.1996 136.131 22.2566 136.514 21.3818 136.514C19.9057 136.514 18.8943 135.817 18.8943 134.422C18.8943 133.425 19.441 132.687 20.5344 132.318C21.5048 131.99 22.4889 131.908 23.801 131.894V131.73C23.801 130.664 23.309 130.09 22.1882 130.09C21.2452 130.09 20.7395 130.609 20.6028 131.429ZM20.3704 134.368C20.3704 134.983 20.8761 135.366 21.6552 135.366C22.8716 135.366 23.801 134.395 23.801 133.22V132.892C20.9991 132.919 20.3704 133.534 20.3704 134.368ZM26.7556 136.336V129.051H28.218V130.131C28.6964 129.256 29.4481 128.86 30.2955 128.86C30.5826 128.86 30.8559 128.928 30.9926 129.051V130.336C30.7739 130.267 30.5142 130.24 30.2135 130.24C28.8194 130.24 28.218 131.088 28.218 132.359V136.336H26.7556ZM34.2461 136.514C32.319 136.514 31.1572 135.079 31.1572 132.7C31.1572 130.226 32.3463 128.86 34.2461 128.86C35.0799 128.86 35.7632 129.201 36.2279 129.871V126.495H37.6904V136.336H36.2279V135.448C35.7632 136.131 35.0799 136.514 34.2461 136.514ZM34.4375 135.284C35.5992 135.284 36.2279 134.381 36.2279 132.7C36.2279 131.033 35.5719 130.09 34.4375 130.09C33.2757 130.09 32.647 131.019 32.647 132.7C32.647 134.354 33.3031 135.284 34.4375 135.284Z" fill="#046E3C"/>
<rect x="-95.6367" y="105" width="148.433" height="53.6708" rx="26.8354" stroke="#6FD4A5" shape-rendering="crispEdges"/>
</g>
<g filter="url(#filter4_d_6555_24236)">
<rect x="63.2969" y="104.5" width="159.433" height="54.6708" rx="27.3354" fill="white" shape-rendering="crispEdges"/>
<rect x="74.2852" y="115.438" width="32.8025" height="32.8025" rx="16.4012" fill="#A4DE9B" fill-opacity="0.5"/>
<path d="M99.8287 127.98L91.3172 132.894L78.5508 125.524L87.0623 120.609L99.8287 127.98Z" fill="#07B463"/>
<path d="M99.8299 127.977V132.893L97.7016 131.664L93.4467 134.12V139.034L91.3184 140.263V132.891L99.8299 127.977Z" fill="#046E3C"/>
<path d="M101.955 134.12L97.6982 136.578L93.4434 134.12L97.6982 131.664L99.8266 132.893L101.955 134.12Z" fill="#6FD4A5"/>
<path d="M101.959 134.128L97.7012 136.586L99.8286 140.271L104.086 137.813L101.959 134.128Z" fill="#E6F8EF"/>
<path d="M106.211 139.034L101.956 141.492L99.8281 140.263L104.085 137.805L106.211 139.034Z" fill="#6FD4A5"/>
<path d="M106.212 139.031V143.945L101.957 146.403V141.489L106.212 139.031Z" fill="#99E0BF"/>
<path d="M101.955 141.505V146.419L93.4434 141.505V134.133L97.6982 136.591L99.8266 140.276L101.955 141.505Z" fill="#31C17E"/>
<path d="M91.3172 132.902V140.274L88.1892 138.468L85.2421 136.766L83.1801 135.575L80.4516 134L78.5508 132.902V125.531L91.3172 132.902Z" fill="#057E45"/>
<path d="M119.076 136.336V127.042H122.383C124.557 127.042 125.896 128.176 125.896 130.035C125.896 131.935 124.529 133.042 122.411 133.042H120.607V136.336H119.076ZM122.37 128.272H120.607V131.812H122.329C123.614 131.812 124.324 131.129 124.324 130.049C124.324 128.969 123.6 128.272 122.37 128.272ZM128.321 131.429H126.858C127.091 129.816 128.198 128.86 130.015 128.86C131.997 128.86 132.981 130.021 132.981 131.716V134.559C132.981 135.434 133.063 135.94 133.227 136.336H131.697C131.587 136.063 131.546 135.68 131.533 135.27C130.918 136.131 129.974 136.514 129.1 136.514C127.624 136.514 126.612 135.817 126.612 134.422C126.612 133.425 127.159 132.687 128.252 132.318C129.223 131.99 130.207 131.908 131.519 131.894V131.73C131.519 130.664 131.027 130.09 129.906 130.09C128.963 130.09 128.457 130.609 128.321 131.429ZM128.088 134.368C128.088 134.983 128.594 135.366 129.373 135.366C130.59 135.366 131.519 134.395 131.519 133.22V132.892C128.717 132.919 128.088 133.534 128.088 134.368ZM134.793 139.521C134.478 139.521 134.15 139.439 133.986 139.384V138.263H134.383C135.216 138.263 135.531 138.099 136.159 136.582L136.378 136.076L133.453 129.051H135.025L136.829 133.589L137.143 134.586L137.458 133.589L139.207 129.051H140.697L137.39 137.183C136.651 139.001 136.091 139.521 134.793 139.521ZM146.702 136.514C144.583 136.514 143.298 135.079 143.298 132.7C143.298 130.226 144.624 128.86 146.702 128.86C148.82 128.86 150.105 130.322 150.105 132.7C150.105 135.161 148.779 136.514 146.702 136.514ZM146.702 135.284C147.945 135.284 148.615 134.381 148.615 132.7C148.615 131.033 147.932 130.09 146.702 130.09C145.472 130.09 144.788 131.006 144.788 132.7C144.788 134.354 145.472 135.284 146.702 135.284ZM151.187 136.336V129.051H152.65V130.021C153.142 129.242 153.907 128.86 154.85 128.86C156.367 128.86 157.31 129.748 157.31 131.47V136.336H155.861V131.771C155.861 130.719 155.397 130.076 154.399 130.076C153.306 130.076 152.65 131.047 152.65 132.058V136.336H151.187ZM163.822 136.514C161.895 136.514 160.733 135.079 160.733 132.7C160.733 130.226 161.922 128.86 163.822 128.86C164.655 128.86 165.339 129.201 165.803 129.871V126.495H167.266V136.336H165.803V135.448C165.339 136.131 164.655 136.514 163.822 136.514ZM164.013 135.284C165.175 135.284 165.803 134.381 165.803 132.7C165.803 131.033 165.147 130.09 164.013 130.09C162.851 130.09 162.223 131.019 162.223 132.7C162.223 134.354 162.879 135.284 164.013 135.284ZM175.153 133.958C174.757 135.653 173.499 136.514 171.791 136.514C169.645 136.514 168.333 135.079 168.333 132.7C168.333 130.226 169.645 128.86 171.722 128.86C173.827 128.86 175.098 130.281 175.098 132.618V132.974H169.823C169.905 134.463 170.602 135.297 171.791 135.297C172.72 135.297 173.376 134.86 173.622 133.958H175.153ZM171.722 130.076C170.67 130.076 170.041 130.746 169.864 131.976H173.581C173.403 130.746 172.761 130.076 171.722 130.076ZM176.221 136.336V126.495H177.684V136.336H176.221ZM179.11 128.149V126.495H180.572V128.149H179.11ZM179.11 136.336V129.051H180.572V136.336H179.11ZM183.843 136.336L181.164 129.051H182.736L184.609 134.463L184.786 135.161L184.964 134.463L186.823 129.051H188.313L185.634 136.336H183.843ZM195.342 133.958C194.946 135.653 193.688 136.514 191.98 136.514C189.834 136.514 188.522 135.079 188.522 132.7C188.522 130.226 189.834 128.86 191.912 128.86C194.016 128.86 195.287 130.281 195.287 132.618V132.974H190.012C190.094 134.463 190.791 135.297 191.98 135.297C192.909 135.297 193.565 134.86 193.811 133.958H195.342ZM191.912 130.076C190.859 130.076 190.23 130.746 190.053 131.976H193.77C193.593 130.746 192.95 130.076 191.912 130.076ZM196.411 136.336V129.051H197.873V130.131C198.351 129.256 199.103 128.86 199.951 128.86C200.238 128.86 200.511 128.928 200.648 129.051V130.336C200.429 130.267 200.169 130.24 199.869 130.24C198.474 130.24 197.873 131.088 197.873 132.359V136.336H196.411ZM201.82 139.521C201.506 139.521 201.178 139.439 201.014 139.384V138.263H201.41C202.244 138.263 202.559 138.099 203.187 136.582L203.406 136.076L200.481 129.051H202.053L203.857 133.589L204.171 134.586L204.486 133.589L206.235 129.051H207.725L204.417 137.183C203.679 139.001 203.119 139.521 201.82 139.521Z" fill="#046E3C"/>
<rect x="63.7969" y="105" width="158.433" height="53.6708" rx="26.8354" stroke="#6FD4A5" shape-rendering="crispEdges"/>
</g>
<g filter="url(#filter5_d_6555_24236)">
<rect x="232.73" y="104.5" width="149.433" height="54.6708" rx="27.3354" fill="white" shape-rendering="crispEdges"/>
<g clip-path="url(#clip3_6555_24236)">
<rect x="243.719" y="115.438" width="32.8025" height="32.8025" rx="16.4012" fill="#A4DE9B" fill-opacity="0.5"/>
<path d="M266.23 142.885L246.678 134.029L247.837 131.41L250.849 132.774L263.268 138.398L267.28 140.216L266.23 142.885Z" fill="black"/>
<path d="M265.795 143.985L246.195 135.108L246.677 134.02L266.229 142.876L265.795 143.985Z" fill="#046E3C"/>
<path d="M268.722 140.857L268.717 140.852" stroke="black" stroke-width="0.683385" stroke-miterlimit="10"/>
<path d="M267.827 139.529L267.822 139.523" stroke="black" stroke-width="0.683385" stroke-miterlimit="10"/>
<path d="M265.415 128.38L265.41 128.375" stroke="black" stroke-width="0.683385" stroke-miterlimit="10"/>
<path d="M270.357 130.616L262.66 127.106L259.249 128.203L260.237 130.487L265.579 138.978L267.535 139.638L270.357 130.616Z" fill="#146B07"/>
<path d="M267.589 139.427L267.651 139.271C266.961 138.244 266.261 137.202 265.559 136.159C263.788 133.512 262.017 130.862 260.423 128.46L262.648 127.135L258.223 125.132L251.888 122.262L249.045 128.68L248.181 130.636L247.84 131.403L250.851 132.767L263.271 138.391L267.283 140.209L267.589 139.427ZM251.208 132.007L252.117 130.071L264.538 135.696L263.629 137.632L251.208 132.007Z" fill="#046E3C"/>
<path d="M264.444 135.742L252.154 130.018L251.24 132.055L263.624 137.543L264.444 135.742Z" fill="#99E0BF"/>
<path d="M268.57 123.763L258.023 131.477L255.48 133.336C257.694 136.058 260.151 139.06 262.609 142.058C263.582 143.239 264.553 144.419 265.509 145.582C265.59 145.682 265.67 145.778 265.75 145.877L265.752 145.879C266.168 146.385 266.581 146.884 266.989 147.379L266.991 147.381C270.001 151.039 272.777 154.401 274.825 156.873L288.595 145.338C284.736 141.262 275.718 131.693 268.57 123.763ZM263.658 130.534L265.925 129.136C266.211 128.961 266.584 129.015 266.805 129.267L269.202 131.969C269.482 132.286 269.509 132.756 269.267 133.103L268.6 134.066C268.458 134.272 268.237 134.41 267.989 134.452L267.136 134.593L266.774 134.653C266.456 134.705 266.137 134.592 265.926 134.349L265.715 134.107L265.713 134.105L263.499 131.574C263.219 131.253 263.296 130.759 263.658 130.534ZM262.682 131.554L264.522 133.7L266.953 136.535L265.813 137.49L261.524 132.675L261.33 132.456L262.685 131.556L262.682 131.554ZM263.45 140.331L257.982 134.212L259.086 133.588L264.336 139.647L263.45 140.331ZM271.277 143.582L266.791 138.545L268.146 137.645L272.417 142.627L271.277 143.582ZM277.226 150.246L272.738 145.208L274.095 144.31L278.364 149.289L277.226 150.246Z" fill="#07B463"/>
<path d="M266.955 136.515L265.815 137.47L261.526 132.655L261.329 132.434L262.684 131.534L264.524 133.68L266.955 136.515Z" fill="#31C17E"/>
<path d="M264.336 139.642L263.45 140.326L257.982 134.207L259.087 133.583L264.336 139.642Z" fill="#31C17E"/>
<path d="M272.418 142.609L271.278 143.564L266.792 138.528L268.147 137.628L272.418 142.609Z" fill="#31C17E"/>
<path d="M278.367 149.281L277.229 150.238L272.741 145.2L274.098 144.302L278.367 149.281Z" fill="#31C17E"/>
<path d="M267.989 134.446L267.136 134.587L266.774 134.647C266.456 134.699 266.137 134.586 265.926 134.343L265.715 134.101L265.713 134.099L263.499 131.568C263.219 131.247 263.296 130.753 263.658 130.528L265.925 129.13C266.211 128.955 266.584 129.009 266.805 129.261L269.202 131.963C269.482 132.28 269.509 132.75 269.267 133.097L268.6 134.06C268.458 134.266 268.237 134.404 267.989 134.446Z" fill="#99E0BF"/>
</g>
<path d="M288.509 136.336V127.042H291.817C293.99 127.042 295.33 128.176 295.33 130.035C295.33 131.935 293.963 133.042 291.844 133.042H290.04V136.336H288.509ZM291.803 128.272H290.04V131.812H291.762C293.047 131.812 293.758 131.129 293.758 130.049C293.758 128.969 293.033 128.272 291.803 128.272ZM297.754 131.429H296.292C296.524 129.816 297.631 128.86 299.449 128.86C301.431 128.86 302.415 130.021 302.415 131.716V134.559C302.415 135.434 302.497 135.94 302.661 136.336H301.13C301.021 136.063 300.98 135.68 300.966 135.27C300.351 136.131 299.408 136.514 298.533 136.514C297.057 136.514 296.046 135.817 296.046 134.422C296.046 133.425 296.593 132.687 297.686 132.318C298.656 131.99 299.64 131.908 300.953 131.894V131.73C300.953 130.664 300.46 130.09 299.34 130.09C298.397 130.09 297.891 130.609 297.754 131.429ZM297.522 134.368C297.522 134.983 298.028 135.366 298.807 135.366C300.023 135.366 300.953 134.395 300.953 133.22V132.892C298.151 132.919 297.522 133.534 297.522 134.368ZM304.226 139.521C303.912 139.521 303.584 139.439 303.42 139.384V138.263H303.816C304.65 138.263 304.964 138.099 305.593 136.582L305.812 136.076L302.887 129.051H304.459L306.263 133.589L306.577 134.586L306.891 133.589L308.641 129.051H310.131L306.823 137.183C306.085 139.001 305.525 139.521 304.226 139.521ZM319.457 136.336L318.008 131.156L317.857 130.336L317.693 131.156L316.245 136.336H314.441L312.336 129.051H313.907L315.247 134.463L315.425 135.284L315.616 134.463L317.147 129.051H318.691L320.236 134.463L320.4 135.243L320.564 134.463L321.903 129.051H323.407L321.288 136.336H319.457ZM324.091 128.149V126.495H325.553V128.149H324.091ZM324.091 136.336V129.051H325.553V136.336H324.091ZM327.171 134.163V130.185H326.187V129.051H327.171V127.37H328.633V129.051H330.205V130.185H328.633V134.081C328.633 134.914 328.865 135.311 329.891 135.311H330.178V136.377C330.014 136.459 329.672 136.514 329.262 136.514C327.84 136.514 327.171 135.735 327.171 134.163ZM330.962 136.336V126.495H332.425V130.021C332.917 129.242 333.682 128.86 334.625 128.86C336.142 128.86 337.085 129.748 337.085 131.47V136.336H335.637V131.771C335.637 130.719 335.172 130.076 334.174 130.076C333.081 130.076 332.425 131.047 332.425 132.058V136.336H330.962ZM347.027 131.593H345.565C345.387 130.554 344.718 130.09 343.87 130.09C342.654 130.09 341.998 131.019 341.998 132.7C341.998 134.354 342.681 135.297 343.911 135.297C344.786 135.297 345.401 134.819 345.62 133.889H347.068C346.754 135.707 345.497 136.514 343.884 136.514C341.779 136.514 340.508 135.065 340.508 132.7C340.508 130.226 341.806 128.86 343.87 128.86C345.497 128.86 346.781 129.775 347.027 131.593ZM349.47 131.429H348.008C348.24 129.816 349.347 128.86 351.165 128.86C353.147 128.86 354.131 130.021 354.131 131.716V134.559C354.131 135.434 354.213 135.94 354.377 136.336H352.846C352.737 136.063 352.696 135.68 352.682 135.27C352.067 136.131 351.124 136.514 350.249 136.514C348.773 136.514 347.762 135.817 347.762 134.422C347.762 133.425 348.308 132.687 349.402 132.318C350.372 131.99 351.356 131.908 352.668 131.894V131.73C352.668 130.664 352.176 130.09 351.055 130.09C350.112 130.09 349.607 130.609 349.47 131.429ZM349.238 134.368C349.238 134.983 349.743 135.366 350.522 135.366C351.739 135.366 352.668 134.395 352.668 133.22V132.892C349.866 132.919 349.238 133.534 349.238 134.368ZM355.623 136.336V129.051H357.085V130.131C357.564 129.256 358.315 128.86 359.163 128.86C359.45 128.86 359.723 128.928 359.86 129.051V130.336C359.641 130.267 359.381 130.24 359.081 130.24C357.687 130.24 357.085 131.088 357.085 132.359V136.336H355.623ZM363.113 136.514C361.186 136.514 360.024 135.079 360.024 132.7C360.024 130.226 361.214 128.86 363.113 128.86C363.947 128.86 364.63 129.201 365.095 129.871V126.495H366.558V136.336H365.095V135.448C364.63 136.131 363.947 136.514 363.113 136.514ZM363.305 135.284C364.466 135.284 365.095 134.381 365.095 132.7C365.095 131.033 364.439 130.09 363.305 130.09C362.143 130.09 361.514 131.019 361.514 132.7C361.514 134.354 362.17 135.284 363.305 135.284Z" fill="#046E3C"/>
<rect x="233.23" y="105" width="148.433" height="53.6708" rx="26.8354" stroke="#6FD4A5" shape-rendering="crispEdges"/>
</g>
</g>
<defs>
<filter id="filter0_d_6555_24236" x="-36.0156" y="38.8281" width="176.434" height="58.6719" filterUnits="userSpaceOnUse" color-interpolation-filters="sRGB">
<feFlood flood-opacity="0" result="BackgroundImageFix"/>
<feColorMatrix in="SourceAlpha" type="matrix" values="0 0 0 0 0 0 0 0 0 0 0 0 0 0 0 0 0 0 127 0" result="hardAlpha"/>
<feOffset dy="1"/>
<feGaussianBlur stdDeviation="1"/>
<feComposite in2="hardAlpha" operator="out"/>
<feColorMatrix type="matrix" values="0 0 0 0 0.184314 0 0 0 0 0.168627 0 0 0 0 0.262745 0 0 0 0.1 0"/>
<feBlend mode="normal" in2="BackgroundImageFix" result="effect1_dropShadow_6555_24236"/>
<feBlend mode="normal" in="SourceGraphic" in2="effect1_dropShadow_6555_24236" result="shape"/>
</filter>
<filter id="filter1_d_6555_24236" x="146.418" y="38.8281" width="161.434" height="58.6719" filterUnits="userSpaceOnUse" color-interpolation-filters="sRGB">
<feFlood flood-opacity="0" result="BackgroundImageFix"/>
<feColorMatrix in="SourceAlpha" type="matrix" values="0 0 0 0 0 0 0 0 0 0 0 0 0 0 0 0 0 0 127 0" result="hardAlpha"/>
<feOffset dy="1"/>
<feGaussianBlur stdDeviation="1"/>
<feComposite in2="hardAlpha" operator="out"/>
<feColorMatrix type="matrix" values="0 0 0 0 0.184314 0 0 0 0 0.168627 0 0 0 0 0.262745 0 0 0 0.1 0"/>
<feBlend mode="normal" in2="BackgroundImageFix" result="effect1_dropShadow_6555_24236"/>
<feBlend mode="normal" in="SourceGraphic" in2="effect1_dropShadow_6555_24236" result="shape"/>
</filter>
<filter id="filter2_d_6555_24236" x="313.852" y="38.8281" width="163.434" height="58.6719" filterUnits="userSpaceOnUse" color-interpolation-filters="sRGB">
<feFlood flood-opacity="0" result="BackgroundImageFix"/>
<feColorMatrix in="SourceAlpha" type="matrix" values="0 0 0 0 0 0 0 0 0 0 0 0 0 0 0 0 0 0 127 0" result="hardAlpha"/>
<feOffset dy="1"/>
<feGaussianBlur stdDeviation="1"/>
<feComposite in2="hardAlpha" operator="out"/>
<feColorMatrix type="matrix" values="0 0 0 0 0.184314 0 0 0 0 0.168627 0 0 0 0 0.262745 0 0 0 0.1 0"/>
<feBlend mode="normal" in2="BackgroundImageFix" result="effect1_dropShadow_6555_24236"/>
<feBlend mode="normal" in="SourceGraphic" in2="effect1_dropShadow_6555_24236" result="shape"/>
</filter>
<filter id="filter3_d_6555_24236" x="-98.1367" y="103.5" width="153.434" height="58.6719" filterUnits="userSpaceOnUse" color-interpolation-filters="sRGB">
<feFlood flood-opacity="0" result="BackgroundImageFix"/>
<feColorMatrix in="SourceAlpha" type="matrix" values="0 0 0 0 0 0 0 0 0 0 0 0 0 0 0 0 0 0 127 0" result="hardAlpha"/>
<feOffset dy="1"/>
<feGaussianBlur stdDeviation="1"/>
<feComposite in2="hardAlpha" operator="out"/>
<feColorMatrix type="matrix" values="0 0 0 0 0.184314 0 0 0 0 0.168627 0 0 0 0 0.262745 0 0 0 0.1 0"/>
<feBlend mode="normal" in2="BackgroundImageFix" result="effect1_dropShadow_6555_24236"/>
<feBlend mode="normal" in="SourceGraphic" in2="effect1_dropShadow_6555_24236" result="shape"/>
</filter>
<filter id="filter4_d_6555_24236" x="61.2969" y="103.5" width="163.434" height="58.6719" filterUnits="userSpaceOnUse" color-interpolation-filters="sRGB">
<feFlood flood-opacity="0" result="BackgroundImageFix"/>
<feColorMatrix in="SourceAlpha" type="matrix" values="0 0 0 0 0 0 0 0 0 0 0 0 0 0 0 0 0 0 127 0" result="hardAlpha"/>
<feOffset dy="1"/>
<feGaussianBlur stdDeviation="1"/>
<feComposite in2="hardAlpha" operator="out"/>
<feColorMatrix type="matrix" values="0 0 0 0 0.184314 0 0 0 0 0.168627 0 0 0 0 0.262745 0 0 0 0.1 0"/>
<feBlend mode="normal" in2="BackgroundImageFix" result="effect1_dropShadow_6555_24236"/>
<feBlend mode="normal" in="SourceGraphic" in2="effect1_dropShadow_6555_24236" result="shape"/>
</filter>
<filter id="filter5_d_6555_24236" x="230.73" y="103.5" width="153.434" height="58.6719" filterUnits="userSpaceOnUse" color-interpolation-filters="sRGB">
<feFlood flood-opacity="0" result="BackgroundImageFix"/>
<feColorMatrix in="SourceAlpha" type="matrix" values="0 0 0 0 0 0 0 0 0 0 0 0 0 0 0 0 0 0 127 0" result="hardAlpha"/>
<feOffset dy="1"/>
<feGaussianBlur stdDeviation="1"/>
<feComposite in2="hardAlpha" operator="out"/>
<feColorMatrix type="matrix" values="0 0 0 0 0.184314 0 0 0 0 0.168627 0 0 0 0 0.262745 0 0 0 0.1 0"/>
<feBlend mode="normal" in2="BackgroundImageFix" result="effect1_dropShadow_6555_24236"/>
<feBlend mode="normal" in="SourceGraphic" in2="effect1_dropShadow_6555_24236" result="shape"/>
</filter>
<clipPath id="clip0_6555_24236">
<rect width="343" height="205" rx="16" fill="white"/>
</clipPath>
<clipPath id="clip1_6555_24236">
<rect x="-23.0273" y="50.7656" width="32.8025" height="32.8025" rx="16.4012" fill="white"/>
</clipPath>
<clipPath id="clip2_6555_24236">
<rect x="159.406" y="50.7656" width="32.8025" height="32.8025" rx="16.4012" fill="white"/>
</clipPath>
<clipPath id="clip3_6555_24236">
<rect x="243.719" y="115.438" width="32.8025" height="32.8025" rx="16.4012" fill="white"/>
</clipPath>
</defs>
</svg>
