<svg width="343" height="212" viewBox="0 0 343 212" fill="none" xmlns="http://www.w3.org/2000/svg">
<g clip-path="url(#clip0_6533_23006)">
<rect width="343" height="212" rx="16" fill="#FBEEE6"/>
<path d="M69.5859 118.83L67.8906 123.312L99.7561 136.225L101.451 131.743L69.5859 118.83Z" fill="#2C2C31"/>
<path d="M64.9249 122.115C63.403 121.498 61.6863 122.276 61.0905 123.851C60.4947 125.426 61.2454 127.203 62.7673 127.82L100.538 143.126C102.06 143.742 103.776 142.965 104.372 141.39C104.968 139.815 104.217 138.038 102.695 137.421L64.9249 122.115Z" fill="#D42620"/>
<path d="M111.468 122.661L107.151 134.061L63.875 116.512L68.1915 105.112C69.3485 102.072 72.6637 100.575 75.6007 101.772L108.241 115.015C111.178 116.212 112.625 119.644 111.468 122.684V122.661Z" fill="#941B16"/>
<path d="M96.6276 144.469L97.5843 141.936L65.7224 129.016L64.7656 131.549C62.7854 136.777 57.0894 139.356 52.0386 137.307C46.9879 135.257 41.2919 137.836 39.3116 143.064L4.31242 235.602C0.485425 245.735 5.31367 257.136 15.0814 261.097L48.1226 274.478C57.9126 278.439 68.9264 273.441 72.7534 263.331L107.753 170.816C109.733 165.588 107.241 159.693 102.19 157.643C97.1393 155.593 94.6473 149.697 96.6276 144.469ZM67.9919 247.808C59.7371 245.459 50.8594 242.396 41.7369 238.688C33.3709 235.303 25.4944 231.641 18.3744 227.887L41.2251 167.5C48.3451 171.254 56.2216 174.893 64.5876 178.301C73.7324 182.009 82.6101 185.049 90.8426 187.422L67.9919 247.808Z" fill="#2C2C31"/>
<path d="M90.8412 187.422L67.9905 247.808C59.7358 245.459 50.858 242.396 41.7355 238.688C33.3695 235.303 25.493 231.641 18.373 227.887L41.2238 167.5C48.3438 171.254 56.2203 174.893 64.5863 178.301C73.731 182.009 82.6087 185.049 90.8412 187.422Z" fill="#969AE0"/>
<path d="M243.963 249.49L233.98 242.246C230.754 212.778 228.799 162.96 227.793 130.156C230.848 130.689 233.904 131.301 236.941 131.972L237.548 142.255L243.963 249.49Z" fill="#E07E37"/>
<path d="M233.979 242.244L232.821 241.415L108.493 247.553H108.455C108.304 247.513 108.152 247.494 108 247.454L116.369 136.667L117.129 126.463C128.44 125.397 143.452 124.43 160.513 124.43C171.692 124.43 183.724 124.844 196.155 125.93C206.517 126.818 217.145 128.18 227.792 130.154C228.798 162.958 230.752 212.775 233.979 242.244Z" fill="#EA8E4C"/>
<path d="M148.887 136.844C157.047 164.425 178.948 203.724 201.274 140.271" stroke="black"/>
<path d="M57.36 160.102L-21.6198 208.093L-61.6719 183.468L17.3079 135.453L57.36 160.102Z" fill="#C97A41"/>
<path d="M17.308 135.446L-61.6718 183.461L-73.6582 176.108V176.085L-61.6718 168.802L5.32159 128.094L17.308 135.446Z" fill="#B0591A"/>
<path d="M5.32127 128.096L-61.6721 168.804L-73.6585 176.087L-110 153.772V153.749L-31.0202 105.758L5.32127 128.096Z" fill="#C97A41"/>
<path d="M57.3587 160.094V214.457L-21.6211 262.448V208.085L57.3587 160.094Z" fill="#EA8E4C"/>
<path d="M282.161 152.652C281.653 153.463 280.897 154.088 280.031 154.496C279.657 154.673 279.277 154.847 279.008 154.96C260.849 162.651 264.594 142.179 264.594 142.179C251.065 139.761 255.922 126.758 255.922 126.758C248.636 97.6495 266.642 119.383 266.642 119.383C266.642 119.383 273.309 119.455 276.198 124.287C277.319 126.163 277.879 128.78 277.212 132.416C277.212 132.416 291.826 137.721 282.161 152.652Z" fill="#07B463"/>
<path d="M296.189 249.641C295.776 251.37 293.544 251.746 292.65 250.228C288.465 243.107 279.927 227.219 273.981 210.969C272.364 206.562 270.933 202.115 269.832 197.804C265.449 180.625 266.356 165.72 281.498 163.932C282.645 163.795 283.874 163.731 285.197 163.756C285.377 163.763 285.557 163.77 285.737 163.777C293.801 164.117 298.496 169.567 300.982 177.615L300.997 177.617C307.455 198.433 299.233 236.676 296.189 249.641Z" fill="#B54F24"/>
<path d="M261.854 121.758C261.854 121.758 283.487 155.888 281.595 168.2" stroke="#59C604" stroke-miterlimit="10"/>
<path d="M275.711 179.294C282.473 175.002 294.208 176.35 300.98 177.622" stroke="#833821" stroke-miterlimit="10"/>
<path d="M269.833 197.808C281.475 188.736 299.351 190.98 299.351 190.98" stroke="#833821" stroke-miterlimit="10"/>
<path d="M273.983 210.984C285.002 202.678 299.57 204.866 299.57 204.866" stroke="#833821" stroke-miterlimit="10"/>
<path d="M299.126 136.83C301.348 152.738 292.977 154.484 286.5 153.624C285.269 153.47 284.112 153.199 283.121 152.934C282.787 152.83 282.467 152.743 282.163 152.642C291.828 137.711 277.214 132.407 277.214 132.407C277.881 128.771 277.321 126.153 276.2 124.278C278.086 120.779 280.854 117.219 280.854 117.219C276.35 102.682 287.8 100.415 287.8 100.415C302.543 71.0868 302.325 102.833 302.325 102.833C309.54 113.053 300.318 118.819 300.318 118.819C308.289 127.697 299.126 136.83 299.126 136.83Z" fill="#057E45"/>
<path d="M294.03 99.4049C294.03 99.4049 284.482 157.095 285.78 169.683" stroke="#59C604" stroke-miterlimit="10"/>
<path d="M392.123 202.474C392.653 211.553 391.742 221.5 382.652 221.831C362.393 222.561 330.409 224.885 313.071 222.48C307.479 221.704 303.372 217.318 302.386 211.76C301.986 209.501 301.683 207.189 301.465 204.84C304.051 205.024 306.713 205.365 309.336 205.917C324.714 209.134 365.686 199.496 372.044 200.704C376.812 201.597 387.194 200.362 392.113 199.68C392.064 200.62 392.069 201.552 392.123 202.474Z" fill="#BDC0CE"/>
<path d="M392.87 194.732C392.429 196.4 392.189 198.054 392.113 199.682C387.194 200.365 376.812 201.599 372.044 200.707C365.686 199.499 324.714 209.136 309.336 205.919C306.713 205.368 304.051 205.026 301.465 204.843C298.589 174.433 309.992 138.245 310.144 132.061C310.194 130.144 310.636 128.306 311.304 126.625C317.523 128.949 323.339 130.761 328.763 132.14C324.865 155.577 324.373 185.659 346.007 190.229C351.646 191.41 356.187 191.804 359.795 191.568H359.82C385.478 195.205 373.406 165.425 367.099 152.597V152.571C366.657 146.938 367.061 140.464 367.666 134.91C376.181 133.479 382.678 130.59 387.522 127.413C388.417 132.363 389.212 137.76 388.821 139.283C388.052 142.29 398.85 171.702 392.87 194.732Z" fill="#E9E9E9"/>
<path d="M347.359 185.447C327.793 181.324 329.383 152.936 333.028 133.148C345.113 135.84 355.167 136.326 363.493 135.473C362.433 142.747 361.26 154.656 363.556 161.563C367.037 172.001 377.835 191.867 347.359 185.447Z" fill="#E9E9E9"/>
<path d="M359.82 191.561H359.795C356.187 191.797 351.646 191.403 346.007 190.222C324.373 185.652 324.865 155.571 328.763 132.133C330.214 132.5 331.627 132.842 333.027 133.144C329.381 152.931 327.792 181.319 347.357 185.442C377.834 191.863 367.036 171.997 363.554 161.558C361.258 154.651 362.432 142.742 363.491 135.468C364.942 135.31 366.329 135.127 367.667 134.903C367.061 140.457 366.657 146.931 367.099 152.564V152.59C367.326 155.4 367.768 158 368.487 160.179C371.968 170.631 379.323 190.248 359.82 191.561Z" fill="#C2C2C2"/>
<path d="M256.438 171.193C256.438 171.193 241.126 173.191 238.173 171.193C238.173 171.193 232.229 180.896 224.465 182.288C224.465 182.288 230.136 174.118 229.53 172.263C229.53 172.263 225.56 172.585 221.493 171.516C218.736 170.79 215.92 169.439 214.297 166.877C214.297 166.877 222.373 168.571 226.245 166.877C226.245 166.877 220.085 158.182 220.105 151.284C222.51 154.672 227.457 160.401 233.128 160.502C232.248 155.661 232.385 150.961 232.776 147.35C234.575 146.987 236.492 147.068 238.173 148.177C237.489 151.465 236.804 155.842 236.961 159.655C240.618 157.961 244.411 153.442 247.931 144.203C247.931 144.203 248.518 155.459 246.132 159.615C246.132 159.615 252.859 158.384 254.052 156.085C254.052 156.085 253.876 158.667 251.999 161.713C250.962 163.427 249.398 165.263 247.032 166.877L256.438 171.193Z" fill="#167A08"/>
<path d="M278.554 198.627C272.687 231.346 223.155 233.282 212.165 209.842C212.165 209.822 212.146 209.822 212.146 209.822C207.902 200.745 209.427 187.875 221.493 171.515C225.56 172.584 229.53 172.261 229.53 172.261C230.136 174.117 224.465 182.287 224.465 182.287C232.228 180.895 238.173 171.192 238.173 171.192C241.126 173.189 256.437 171.192 256.437 171.192L247.031 166.876C249.398 165.262 250.962 163.426 251.998 161.711C261.561 161.53 276.501 164.193 279.18 181.924C279.864 186.443 279.747 191.95 278.554 198.627Z" fill="#D42620"/>
<path d="M234.924 166.882C234.083 164.784 233.497 162.626 233.125 160.508" stroke="#20AF0B" stroke-miterlimit="10"/>
<path d="M238.212 165.325C237.411 163.832 237.059 161.835 236.961 159.656" stroke="#20AF0B" stroke-miterlimit="10"/>
<path d="M220.62 178.9C215.982 183.416 208.904 194.863 217.691 204.529C228.675 216.611 231.604 175.605 220.62 178.9Z" fill="#DB4B46"/>
</g>
<defs>
<clipPath id="clip0_6533_23006">
<rect width="343" height="212" rx="16" fill="white"/>
</clipPath>
</defs>
</svg>
