<svg width="464" height="205" viewBox="0 0 464 205" fill="none" xmlns="http://www.w3.org/2000/svg">
<g clip-path="url(#clip0_6525_22043)">
<rect width="464" height="205" rx="16" fill="#FBEEE6"/>
<path d="M127.177 122.334L125.23 127.297L161.823 141.594L163.769 136.631L127.177 122.334Z" fill="#2C2C31"/>
<path d="M121.824 125.967C120.076 125.284 118.105 126.145 117.42 127.889C116.736 129.633 117.598 131.6 119.346 132.283L162.719 149.23C164.467 149.912 166.438 149.052 167.122 147.308C167.806 145.564 166.944 143.596 165.197 142.914L121.824 125.967Z" fill="#D42620"/>
<path d="M175.273 126.577L170.317 139.199L120.621 119.769L125.578 107.147C126.906 103.781 130.714 102.123 134.086 103.449L171.569 118.111C174.941 119.437 176.602 123.237 175.273 126.603V126.577Z" fill="#941B16"/>
<path d="M158.231 150.727L159.329 147.922L122.741 133.617L121.642 136.422C119.368 142.21 112.828 145.066 107.028 142.797C101.228 140.528 94.6867 143.383 92.4128 149.172L52.2219 251.628C47.8273 262.848 53.3717 275.47 64.5883 279.856L102.531 294.671C113.773 299.057 126.42 293.524 130.815 282.33L171.006 179.899C173.28 174.11 170.418 167.582 164.618 165.313C158.818 163.044 155.957 156.516 158.231 150.727ZM125.347 265.143C115.868 262.542 105.673 259.151 95.1978 255.045C85.5908 251.297 76.5459 247.243 68.3698 243.086L94.6101 176.227C102.786 180.383 111.831 184.412 121.438 188.186C131.939 192.291 142.134 195.657 151.588 198.284L125.347 265.143Z" fill="#2C2C31"/>
<path d="M151.587 198.276L125.347 265.135C115.867 262.534 105.673 259.143 95.1971 255.037C85.5901 251.289 76.5453 247.235 68.3691 243.078L94.6094 176.219C102.786 180.375 111.83 184.404 121.437 188.178C131.939 192.283 142.133 195.649 151.587 198.276Z" fill="#969AE0"/>
<path d="M328.131 248.461L316.667 240.441C312.962 207.814 310.718 152.656 309.562 116.336C313.071 116.926 316.58 117.603 320.067 118.346L320.764 129.732L328.131 248.461Z" fill="#E07E37"/>
<path d="M316.666 240.442L315.336 239.524L172.567 246.321H172.523C172.349 246.277 172.174 246.255 172 246.212L181.611 123.549L182.483 112.251C195.472 111.071 212.71 110 232.303 110C245.139 110 258.956 110.459 273.231 111.661C285.13 112.644 297.335 114.152 309.561 116.337C310.716 152.658 312.961 207.815 316.666 240.442Z" fill="#EA8E4C"/>
<path d="M218.375 127.969C227.718 159.549 252.796 204.546 278.359 131.893" stroke="black"/>
<path d="M136.185 153.166L45.4893 206.301L-0.503906 179.036L90.1913 125.875L136.185 153.166Z" fill="#C97A41"/>
<path d="M90.192 125.875L-0.503182 179.036L-14.2676 170.895V170.87L-0.503182 162.806L76.4277 117.734L90.192 125.875Z" fill="#B0591A"/>
<path d="M76.4274 117.733L-0.503403 162.805L-14.2678 170.868L-56 146.161V146.135L34.6952 93L76.4274 117.733Z" fill="#C97A41"/>
<path d="M45.4898 206.303V266.494L-56 206.329V146.164L-14.2678 170.871V193.174L-0.503391 201.212V179.038L45.4898 206.303Z" fill="#D47C3C"/>
<path d="M136.185 153.164V213.355L45.4902 266.49V206.299L136.185 153.164Z" fill="#EA8E4C"/>
<path d="M388.575 158.699C388.112 159.661 387.349 160.446 386.439 161.004C386.029 161.255 385.61 161.505 385.313 161.67C365.723 172.623 367.062 149.617 367.062 149.617C351.301 148.827 354.975 133.873 354.975 133.873C342.51 102.899 366.135 124.292 366.135 124.292C366.135 124.292 373.741 123.451 377.724 128.361C379.27 130.267 380.282 133.066 380.042 137.152C380.042 137.152 397.452 140.963 388.575 158.699Z" fill="#07B463"/>
<path d="M418.433 263.321C418.21 265.278 415.72 265.999 414.484 264.454C408.698 257.208 396.697 240.932 387.597 223.9C385.125 219.282 382.859 214.594 380.987 210.01C373.536 191.742 372.437 175.242 389.434 171.191C390.722 170.882 392.113 170.641 393.624 170.487C393.83 170.469 394.036 170.452 394.242 170.435C403.479 169.697 409.608 175.036 413.591 183.535H413.609C423.945 205.512 420.047 248.658 418.433 263.321Z" fill="#B54F24"/>
<path d="M361.018 127.562C361.018 127.562 390.549 162.073 390.154 175.859" stroke="#59C604" stroke-miterlimit="10"/>
<path d="M385.039 188.857C392.13 183.208 405.694 183.071 413.591 183.534" stroke="#833821" stroke-miterlimit="10"/>
<path d="M380.986 210.01C392.953 198.437 413.642 198.438 413.642 198.438" stroke="#833821" stroke-miterlimit="10"/>
<path d="M405.642 138.982C410.449 156.152 401.161 159.225 393.658 159.173C392.233 159.173 390.876 159.036 389.709 158.881C389.314 158.813 388.936 158.761 388.576 158.693C397.452 140.957 380.042 137.145 380.042 137.145C380.283 133.059 379.27 130.26 377.725 128.355C379.373 124.251 382.017 119.959 382.017 119.959C374.806 104.61 387.528 100.54 387.528 100.54C400.13 66.2878 404.423 101.193 404.423 101.193C414.106 111.426 404.423 119.032 404.423 119.032C414.776 127.685 405.642 138.982 405.642 138.982Z" fill="#057E45"/>
<path d="M394.482 98.5703C394.482 98.5703 391.855 163.264 395.135 176.913" stroke="#59C604" stroke-miterlimit="10"/>
<path d="M508.614 198.51C509.059 208.816 508.073 220.055 497.764 220.416C474.007 221.242 436.21 223.908 416.619 220.958C411.02 220.115 406.858 215.747 405.767 210.19C405.219 207.396 404.814 204.526 404.533 201.604C407.503 201.808 410.559 202.185 413.572 202.796C431.231 206.358 478.28 195.687 485.581 197.025C491.057 198.013 502.979 196.647 508.628 195.891C508.58 196.771 508.577 197.644 508.614 198.51Z" fill="#BDC0CE"/>
<path d="M509.498 190.408C508.991 192.254 508.716 194.086 508.629 195.888C502.979 196.644 491.057 198.011 485.582 197.022C478.281 195.685 431.231 206.356 413.573 202.794C410.56 202.183 407.503 201.805 404.534 201.602C401.231 167.932 414.326 127.866 414.5 121.019C414.558 118.896 415.065 116.861 415.833 115C422.974 117.573 429.652 119.579 435.881 121.106C431.405 147.056 430.84 180.362 455.683 185.421C462.158 186.73 467.373 187.166 471.516 186.904H471.545C501.009 190.931 487.146 157.959 479.903 143.756V143.727C479.396 137.49 479.86 130.323 480.555 124.173C490.333 122.589 497.793 119.39 503.356 115.872C504.384 121.353 505.297 127.328 504.848 129.014C503.964 132.344 516.364 164.908 509.498 190.408Z" fill="#E9E9E9"/>
<path d="M457.233 180.131C434.765 175.566 436.591 144.135 440.777 122.227C454.654 125.207 466.2 125.745 475.76 124.8C474.543 132.854 473.196 146.04 475.833 153.686C479.831 165.244 492.23 187.24 457.233 180.131Z" fill="#E9E9E9"/>
<path d="M471.545 186.908H471.516C467.373 187.169 462.158 186.733 455.683 185.425C430.84 180.366 431.405 147.059 435.881 121.109C437.547 121.516 439.169 121.894 440.777 122.229C436.591 144.137 434.766 175.568 457.233 180.133C492.231 187.242 479.831 165.246 475.833 153.689C473.197 146.042 474.544 132.856 475.761 124.802C477.426 124.628 479.02 124.424 480.555 124.177C479.86 130.326 479.396 137.493 479.903 143.73V143.759C480.164 146.87 480.671 149.749 481.497 152.162C485.495 163.734 493.94 185.454 471.545 186.908Z" fill="#C2C2C2"/>
<path d="M357.97 167.899C357.97 167.899 340.387 170.11 336.996 167.899C336.996 167.899 330.17 178.642 321.255 180.183C321.255 180.183 327.767 171.138 327.071 169.083C327.071 169.083 322.512 169.44 317.842 168.256C314.676 167.452 311.442 165.956 309.578 163.12C309.578 163.12 318.852 164.996 323.298 163.12C323.298 163.12 316.225 153.493 316.247 145.855C319.009 149.607 324.691 155.95 331.203 156.062C330.192 150.702 330.349 145.498 330.799 141.5C332.864 141.098 335.065 141.187 336.996 142.416C336.21 146.056 335.424 150.903 335.604 155.124C339.803 153.248 344.16 148.245 348.202 138.016C348.202 138.016 348.875 150.478 346.136 155.079C346.136 155.079 353.86 153.717 355.23 151.171C355.23 151.171 355.028 154.029 352.872 157.402C351.682 159.3 349.886 161.333 347.169 163.12L357.97 167.899Z" fill="#167A08"/>
<path d="M383.367 198.272C376.631 234.498 319.751 236.642 307.131 210.69C307.131 210.667 307.108 210.667 307.108 210.667C302.236 200.617 303.987 186.368 317.842 168.254C322.513 169.438 327.071 169.081 327.071 169.081C327.767 171.136 321.255 180.181 321.255 180.181C330.17 178.64 336.997 167.897 336.997 167.897C340.387 170.108 357.97 167.897 357.97 167.897L347.169 163.117C349.886 161.331 351.683 159.298 352.873 157.4C363.853 157.199 381.009 160.147 384.086 179.779C384.872 184.782 384.737 190.879 383.367 198.272Z" fill="#D42620"/>
<path d="M333.269 163.12C332.303 160.797 331.63 158.408 331.203 156.062" stroke="#20AF0B" stroke-miterlimit="10"/>
<path d="M337.043 161.401C336.122 159.748 335.718 157.537 335.605 155.125" stroke="#20AF0B" stroke-miterlimit="10"/>
<path d="M315.963 182.451C310.653 187.621 302.549 200.728 312.61 211.795C325.186 225.629 328.54 178.678 315.963 182.451Z" fill="#DB4B46"/>
</g>
<defs>
<clipPath id="clip0_6525_22043">
<rect width="464" height="205" rx="16" fill="white"/>
</clipPath>
</defs>
</svg>
